<svg width="136" height="137" viewBox="0 0 136 137" fill="none" xmlns="http://www.w3.org/2000/svg">
<rect x="18.5" y="18.5" width="99" height="99" fill="url(#paint0_linear_45_426)" stroke="black"/>
<path d="M62.1201 37.2264L79.6187 47.9973L97.6941 59.1232C105.196 63.7406 104.933 74.7319 97.2203 78.9864L79.2051 88.9232L61.1898 98.8601C53.4767 103.115 44.04 97.4729 44.1363 88.6647L44.3682 67.4408L44.5927 46.8942C44.6903 37.9537 54.5059 32.5396 62.1201 37.2264Z" fill="#E34E4E"/>
<path d="M62.1201 37.2264L79.6187 47.9973L97.6941 59.1232C105.196 63.7406 104.933 74.7319 97.2203 78.9864L79.2051 88.9232L61.1898 98.8601C53.4767 103.115 44.04 97.4729 44.1363 88.6647L44.3682 67.4408L44.5927 46.8942C44.6903 37.9537 54.5059 32.5396 62.1201 37.2264Z" stroke="#EA2F2F" stroke-width="3"/>
<path d="M62.1201 37.2264L79.6187 47.9973L97.6941 59.1232C105.196 63.7406 104.933 74.7319 97.2203 78.9864L79.2051 88.9232L61.1898 98.8601C53.4767 103.115 44.04 97.4729 44.1363 88.6647L44.3682 67.4408L44.5927 46.8942C44.6903 37.9537 54.5059 32.5396 62.1201 37.2264Z" stroke="black" stroke-opacity="0.2" stroke-width="3"/>
<path d="M102 71L62 71" stroke="#EA2F2F" stroke-width="5" stroke-linecap="round" stroke-linejoin="bevel"/>
<path d="M102 71L62 71" stroke="black" stroke-opacity="0.2" stroke-width="5" stroke-linecap="round" stroke-linejoin="bevel"/>
<defs>
<linearGradient id="paint0_linear_45_426" x1="68" y1="18" x2="68" y2="118" gradientUnits="userSpaceOnUse">
<stop stop-color="#613A00"/>
<stop offset="1" stop-color="#764700"/>
</linearGradient>
</defs>
</svg>
