<svg width="124" height="122" viewBox="0 0 124 122" fill="none" xmlns="http://www.w3.org/2000/svg">
<rect x="12.5" y="12.5" width="99" height="99" fill="url(#paint0_linear_45_414)" stroke="black"/>
<path d="M44.0972 43.3322L57.3623 48.479L58.7273 49.0086L59.6446 47.8675L68.5591 36.7777L70.7343 50.839L70.9582 52.2859L72.4051 52.5097L86.4664 54.685L75.3766 63.5995L74.2354 64.5168L74.765 65.8817L79.9118 79.1468L66.6468 74L65.2818 73.4704L64.3645 74.6115L55.45 85.7013L53.2747 71.64L53.0509 70.1931L51.604 69.9693L37.5427 67.794L48.6325 58.8795L49.7736 57.9622L49.244 56.5973L44.0972 43.3322Z" stroke="#A5E3F0" stroke-width="4" stroke-linecap="round"/>
<line x1="41.7628" y1="31.0485" x2="54.9882" y2="38.6841" stroke="#92CDE4" stroke-width="4" stroke-linecap="round"/>
<line x1="2" y1="-2" x2="17.2713" y2="-2" transform="matrix(-0.5 0.866025 0.866025 0.5 67.4033 24.1782)" stroke="#92CDE4" stroke-width="4" stroke-linecap="round"/>
<line x1="45.1783" y1="24.4904" x2="52.2042" y2="28.5468" stroke="#4BC3EF" stroke-width="4" stroke-linecap="round"/>
<line x1="2" y1="-2" x2="10.1128" y2="-2" transform="matrix(-0.5 0.866025 0.866025 0.5 61.1033 20.2231)" stroke="#4BC3EF" stroke-width="4" stroke-linecap="round"/>
<line x1="50.8024" y1="15.3354" x2="62.5031" y2="59.0032" stroke="#1BADDE" stroke-width="4" stroke-linecap="round"/>
<line x1="77.8312" y1="28.6223" x2="77.8312" y2="43.8937" stroke="#92CDE4" stroke-width="4" stroke-linecap="round"/>
<line x1="2" y1="-2" x2="17.2713" y2="-2" transform="matrix(-1 0 0 1 96.6015 47.3926)" stroke="#92CDE4" stroke-width="4" stroke-linecap="round"/>
<line x1="85.2186" y1="28.301" x2="85.2186" y2="36.4138" stroke="#4BC3EF" stroke-width="4" stroke-linecap="round"/>
<line x1="2" y1="-2" x2="10.1128" y2="-2" transform="matrix(-1 0 0 1 96.8765 39.959)" stroke="#4BC3EF" stroke-width="4" stroke-linecap="round"/>
<line x1="95.9591" y1="28.5943" x2="63.9921" y2="60.5614" stroke="#1BADDE" stroke-width="4" stroke-linecap="round"/>
<line x1="2" y1="-2" x2="17.2713" y2="-2" transform="matrix(-0.5 -0.866025 -0.866025 0.5 91.4375 84.2805)" stroke="#92CDE4" stroke-width="4" stroke-linecap="round"/>
<line x1="98.3079" y1="58.6398" x2="85.0826" y2="66.2754" stroke="#92CDE4" stroke-width="4" stroke-linecap="round"/>
<line x1="2" y1="-2" x2="10.1128" y2="-2" transform="matrix(-0.5 -0.866025 -0.866025 0.5 97.9957 80.865)" stroke="#4BC3EF" stroke-width="4" stroke-linecap="round"/>
<line x1="102.263" y1="64.9398" x2="95.2369" y2="68.9962" stroke="#4BC3EF" stroke-width="4" stroke-linecap="round"/>
<line x1="2" y1="-2" x2="47.2082" y2="-2" transform="matrix(-0.965926 -0.258819 -0.258819 0.965926 109.297 74.9583)" stroke="#1BADDE" stroke-width="4" stroke-linecap="round"/>
<line x1="2" y1="-2" x2="17.2713" y2="-2" transform="matrix(0.5 0.866025 0.866025 -0.5 32.5432 38.0647)" stroke="#92CDE4" stroke-width="4" stroke-linecap="round"/>
<line x1="25.6728" y1="63.7054" x2="38.8982" y2="56.0698" stroke="#92CDE4" stroke-width="4" stroke-linecap="round"/>
<line x1="2" y1="-2" x2="10.1128" y2="-2" transform="matrix(0.5 0.866025 0.866025 -0.5 25.985 41.4802)" stroke="#4BC3EF" stroke-width="4" stroke-linecap="round"/>
<line x1="21.7179" y1="57.4052" x2="28.7438" y2="53.3488" stroke="#4BC3EF" stroke-width="4" stroke-linecap="round"/>
<line x1="2" y1="-2" x2="47.2082" y2="-2" transform="matrix(0.965926 0.258819 0.258819 -0.965926 14.6837 47.387)" stroke="#1BADDE" stroke-width="4" stroke-linecap="round"/>
<line x1="46.0424" y1="93.9082" x2="46.0424" y2="78.6369" stroke="#92CDE4" stroke-width="4" stroke-linecap="round"/>
<line x1="2" y1="-2" x2="17.2713" y2="-2" transform="matrix(1 0 0 -1 27.2721 75.1379)" stroke="#92CDE4" stroke-width="4" stroke-linecap="round"/>
<line x1="38.655" y1="94.2295" x2="38.655" y2="86.1167" stroke="#4BC3EF" stroke-width="4" stroke-linecap="round"/>
<line x1="2" y1="-2" x2="10.1128" y2="-2" transform="matrix(1 0 0 -1 26.9971 82.5715)" stroke="#4BC3EF" stroke-width="4" stroke-linecap="round"/>
<line x1="27.9144" y1="93.9362" x2="59.8815" y2="61.9692" stroke="#1BADDE" stroke-width="4" stroke-linecap="round"/>
<line x1="2" y1="-2" x2="17.2713" y2="-2" transform="matrix(0.5 -0.866025 -0.866025 -0.5 56.8219 98.1785)" stroke="#92CDE4" stroke-width="4" stroke-linecap="round"/>
<line x1="82.4625" y1="91.308" x2="69.2372" y2="83.6723" stroke="#92CDE4" stroke-width="4" stroke-linecap="round"/>
<line x1="2" y1="-2" x2="10.1128" y2="-2" transform="matrix(0.5 -0.866025 -0.866025 -0.5 63.059 102.15)" stroke="#4BC3EF" stroke-width="4" stroke-linecap="round"/>
<line x1="78.984" y1="97.8832" x2="71.9581" y2="93.8268" stroke="#4BC3EF" stroke-width="4" stroke-linecap="round"/>
<line x1="2" y1="-2" x2="47.2082" y2="-2" transform="matrix(-0.258819 -0.965926 -0.965926 0.258819 73.8249 108.984)" stroke="#1BADDE" stroke-width="4" stroke-linecap="round"/>
<path d="M58.7923 49.3712L64.0826 51.565L69.7611 52.3103L70.5064 57.9888L72.7002 63.2791L68.1552 66.7638L64.6705 71.3088L59.3801 69.1151L53.7017 68.3698L52.9563 62.6913L50.7626 57.4009L55.3076 53.9162L58.7923 49.3712Z" fill="#D7E9FC"/>
<path fill-rule="evenodd" clip-rule="evenodd" d="M58.7922 49.3712L55.3075 53.9162L50.7625 57.4009L52.9563 62.6913L53.7016 68.3697L59.3801 69.115L64.6704 71.3088L58.7922 49.3712Z" fill="#C0DBF2"/>
<defs>
<linearGradient id="paint0_linear_45_414" x1="62" y1="12" x2="62" y2="112" gradientUnits="userSpaceOnUse">
<stop stop-color="#CDE5FF"/>
<stop offset="1" stop-color="#F4F9FF" stop-opacity="0"/>
</linearGradient>
</defs>
</svg>
