<svg width="124" height="122" viewBox="0 0 124 122" fill="none" xmlns="http://www.w3.org/2000/svg">
<rect x="12.5" y="11.5" width="99" height="99" fill="url(#paint0_linear_45_415)" stroke="black"/>
<path d="M55.434 36.7755L64.3484 47.8653L65.2657 49.0064L66.6307 48.4768L79.8958 43.33L74.749 56.5951L74.2194 57.96L75.3605 58.8773L86.4503 67.7918L72.389 69.9671L70.9421 70.191L70.7183 71.6378L68.543 85.6991L59.6285 74.6093L58.7112 73.4682L57.3463 73.9978L44.0812 79.1446L49.228 65.8795L49.7576 64.5146L48.6164 63.5973L37.5267 54.6828L51.5879 52.5075L53.0348 52.2837L53.2587 50.8368L55.434 36.7755Z" stroke="#A5E3F0" stroke-width="4" stroke-linecap="round"/>
<line x1="59.5541" y1="24.9703" x2="67.1898" y2="38.1957" stroke="#92CDE4" stroke-width="4" stroke-linecap="round"/>
<line x1="2" y1="-2" x2="17.2713" y2="-2" transform="matrix(-0.866025 0.5 0.5 0.866025 85.1948 31.8408)" stroke="#92CDE4" stroke-width="4" stroke-linecap="round"/>
<line x1="65.7912" y1="20.9987" x2="69.8476" y2="28.0245" stroke="#4BC3EF" stroke-width="4" stroke-linecap="round"/>
<line x1="2" y1="-2" x2="10.1128" y2="-2" transform="matrix(-0.866025 0.5 0.5 0.866025 81.7161 25.2656)" stroke="#4BC3EF" stroke-width="4" stroke-linecap="round"/>
<line x1="75.2393" y1="15.8821" x2="63.5385" y2="59.5499" stroke="#1BADDE" stroke-width="4" stroke-linecap="round"/>
<line x1="92.0034" y1="40.9034" x2="84.3677" y2="54.1288" stroke="#92CDE4" stroke-width="4" stroke-linecap="round"/>
<line x1="2" y1="-2" x2="17.2713" y2="-2" transform="matrix(-0.866025 -0.5 -0.5 0.866025 98.8737 66.5442)" stroke="#92CDE4" stroke-width="4" stroke-linecap="round"/>
<line x1="98.5616" y1="44.319" x2="94.5052" y2="51.3449" stroke="#4BC3EF" stroke-width="4" stroke-linecap="round"/>
<line x1="2" y1="-2" x2="10.1128" y2="-2" transform="matrix(-0.866025 -0.5 -0.5 0.866025 102.829 60.2439)" stroke="#4BC3EF" stroke-width="4" stroke-linecap="round"/>
<line x1="107.717" y1="49.9431" x2="64.0488" y2="61.6439" stroke="#1BADDE" stroke-width="4" stroke-linecap="round"/>
<line x1="2" y1="-2" x2="17.2713" y2="-2" transform="matrix(0 -1 -1 0 75.9576 95.908)" stroke="#92CDE4" stroke-width="4" stroke-linecap="round"/>
<line x1="94.7279" y1="77.1377" x2="79.4566" y2="77.1377" stroke="#92CDE4" stroke-width="4" stroke-linecap="round"/>
<line x1="2" y1="-2" x2="10.1128" y2="-2" transform="matrix(0 -1 -1 0 83.345 96.2292)" stroke="#4BC3EF" stroke-width="4" stroke-linecap="round"/>
<line x1="95.0029" y1="84.5713" x2="86.8901" y2="84.5713" stroke="#4BC3EF" stroke-width="4" stroke-linecap="round"/>
<line x1="2" y1="-2" x2="47.2082" y2="-2" transform="matrix(-0.707107 -0.707107 -0.707107 0.707107 96.0855 96.7644)" stroke="#1BADDE" stroke-width="4" stroke-linecap="round"/>
<line x1="2" y1="-2" x2="17.2713" y2="-2" transform="matrix(0 1 1 0 48.0616 26.4368)" stroke="#92CDE4" stroke-width="4" stroke-linecap="round"/>
<line x1="29.2914" y1="45.207" x2="44.5627" y2="45.207" stroke="#92CDE4" stroke-width="4" stroke-linecap="round"/>
<line x1="2" y1="-2" x2="10.1128" y2="-2" transform="matrix(0 1 1 0 40.6743 26.1155)" stroke="#4BC3EF" stroke-width="4" stroke-linecap="round"/>
<line x1="29.0164" y1="37.7734" x2="37.1292" y2="37.7734" stroke="#4BC3EF" stroke-width="4" stroke-linecap="round"/>
<line x1="2" y1="-2" x2="47.2082" y2="-2" transform="matrix(0.707107 0.707107 0.707107 -0.707107 27.9338 25.5801)" stroke="#1BADDE" stroke-width="4" stroke-linecap="round"/>
<line x1="31.8304" y1="81.5485" x2="39.4661" y2="68.3231" stroke="#92CDE4" stroke-width="4" stroke-linecap="round"/>
<line x1="2" y1="-2" x2="17.2713" y2="-2" transform="matrix(0.866025 0.5 0.5 -0.866025 24.96 55.9077)" stroke="#92CDE4" stroke-width="4" stroke-linecap="round"/>
<line x1="25.2722" y1="78.1329" x2="29.3286" y2="71.107" stroke="#4BC3EF" stroke-width="4" stroke-linecap="round"/>
<line x1="2" y1="-2" x2="10.1128" y2="-2" transform="matrix(0.866025 0.5 0.5 -0.866025 21.0051 62.2078)" stroke="#4BC3EF" stroke-width="4" stroke-linecap="round"/>
<line x1="16.1172" y1="72.5088" x2="59.785" y2="60.808" stroke="#1BADDE" stroke-width="4" stroke-linecap="round"/>
<line x1="2" y1="-2" x2="17.2713" y2="-2" transform="matrix(0.866025 -0.5 -0.5 -0.866025 39.0308 90.6362)" stroke="#92CDE4" stroke-width="4" stroke-linecap="round"/>
<line x1="64.6714" y1="97.5065" x2="57.0357" y2="84.2811" stroke="#92CDE4" stroke-width="4" stroke-linecap="round"/>
<line x1="2" y1="-2" x2="10.1128" y2="-2" transform="matrix(0.866025 -0.5 -0.5 -0.866025 42.4463 97.1943)" stroke="#4BC3EF" stroke-width="4" stroke-linecap="round"/>
<line x1="58.3712" y1="101.462" x2="54.3148" y2="94.4357" stroke="#4BC3EF" stroke-width="4" stroke-linecap="round"/>
<line x1="2" y1="-2" x2="47.2082" y2="-2" transform="matrix(0.258819 -0.965926 -0.965926 -0.258819 48.353 108.496)" stroke="#1BADDE" stroke-width="4" stroke-linecap="round"/>
<path d="M65.1407 49.3529L68.6254 53.8979L73.1704 57.3826L70.9767 62.673L70.2313 68.3514L64.5529 69.0968L59.2625 71.2905L55.7778 66.7455L51.2328 63.2608L53.4266 57.9704L54.1719 52.292L59.8503 51.5467L65.1407 49.3529Z" fill="#D7E9FC"/>
<path fill-rule="evenodd" clip-rule="evenodd" d="M65.1407 49.3529L59.8503 51.5467L54.1719 52.292L53.4266 57.9705L51.2328 63.2608L55.7778 66.7455L59.2625 71.2906L65.1407 49.3529Z" fill="#C0DBF2"/>
<defs>
<linearGradient id="paint0_linear_45_415" x1="62" y1="11" x2="62" y2="111" gradientUnits="userSpaceOnUse">
<stop stop-color="#CDE5FF"/>
<stop offset="1" stop-color="#F4F9FF" stop-opacity="0"/>
</linearGradient>
</defs>
</svg>
