<svg width="142" height="141" viewBox="0 0 142 141" fill="none" xmlns="http://www.w3.org/2000/svg">
<rect x="21.5" y="20.5" width="99" height="99" fill="url(#paint0_linear_45_416)" stroke="black"/>
<path d="M77.5299 45.766L79.7052 59.8273L79.9291 61.2742L81.3759 61.498L95.4372 63.6733L84.3474 72.5878L83.2063 73.5051L83.7359 74.8701L88.8827 88.1352L75.6176 82.9884L74.2527 82.4588L73.3354 83.5999L64.4209 94.6897L62.2456 80.6284L62.0218 79.1815L60.5749 78.9577L46.5136 76.7824L57.6034 67.8679L58.7445 66.9506L58.2149 65.5856L53.0681 52.3206L66.3332 57.4673L67.6981 57.9969L68.6154 56.8558L77.5299 45.766Z" stroke="#A5E3F0" stroke-width="4" stroke-linecap="round"/>
<line x1="87.0007" y1="37.6025" x2="87.0007" y2="52.8739" stroke="#92CDE4" stroke-width="4" stroke-linecap="round"/>
<line x1="2" y1="-2" x2="17.2713" y2="-2" transform="matrix(-1 0 0 1 105.771 56.3728)" stroke="#92CDE4" stroke-width="4" stroke-linecap="round"/>
<line x1="94.3881" y1="37.2812" x2="94.3881" y2="45.394" stroke="#4BC3EF" stroke-width="4" stroke-linecap="round"/>
<line x1="2" y1="-2" x2="10.1128" y2="-2" transform="matrix(-1 0 0 1 106.046 48.9392)" stroke="#4BC3EF" stroke-width="4" stroke-linecap="round"/>
<line x1="105.129" y1="37.5745" x2="73.1615" y2="69.5416" stroke="#1BADDE" stroke-width="4" stroke-linecap="round"/>
<line x1="107.136" y1="67.6258" x2="93.9106" y2="75.2615" stroke="#92CDE4" stroke-width="4" stroke-linecap="round"/>
<line x1="2" y1="-2" x2="17.2713" y2="-2" transform="matrix(-0.5 -0.866025 -0.866025 0.5 100.266 93.2664)" stroke="#92CDE4" stroke-width="4" stroke-linecap="round"/>
<line x1="111.108" y1="73.8627" x2="104.082" y2="77.9191" stroke="#4BC3EF" stroke-width="4" stroke-linecap="round"/>
<line x1="2" y1="-2" x2="10.1128" y2="-2" transform="matrix(-0.5 -0.866025 -0.866025 0.5 106.841 89.7878)" stroke="#4BC3EF" stroke-width="4" stroke-linecap="round"/>
<line x1="116.224" y1="83.3109" x2="72.5564" y2="71.6102" stroke="#1BADDE" stroke-width="4" stroke-linecap="round"/>
<line x1="2" y1="-2" x2="17.2713" y2="-2" transform="matrix(0.5 -0.866025 -0.866025 -0.5 65.7377 107.238)" stroke="#92CDE4" stroke-width="4" stroke-linecap="round"/>
<line x1="91.3784" y1="100.368" x2="78.1531" y2="92.7319" stroke="#92CDE4" stroke-width="4" stroke-linecap="round"/>
<line x1="2" y1="-2" x2="10.1128" y2="-2" transform="matrix(0.5 -0.866025 -0.866025 -0.5 71.9748 111.21)" stroke="#4BC3EF" stroke-width="4" stroke-linecap="round"/>
<line x1="87.8998" y1="106.943" x2="80.8739" y2="102.886" stroke="#4BC3EF" stroke-width="4" stroke-linecap="round"/>
<line x1="2" y1="-2" x2="47.2082" y2="-2" transform="matrix(-0.258819 -0.965926 -0.965926 0.258819 82.7407 118.044)" stroke="#1BADDE" stroke-width="4" stroke-linecap="round"/>
<line x1="2" y1="-2" x2="17.2713" y2="-2" transform="matrix(-0.5 0.866025 0.866025 0.5 76.3148 33.1262)" stroke="#92CDE4" stroke-width="4" stroke-linecap="round"/>
<line x1="50.6741" y1="39.9967" x2="63.8995" y2="47.6324" stroke="#92CDE4" stroke-width="4" stroke-linecap="round"/>
<line x1="2" y1="-2" x2="10.1128" y2="-2" transform="matrix(-0.5 0.866025 0.866025 0.5 70.0778 29.1543)" stroke="#4BC3EF" stroke-width="4" stroke-linecap="round"/>
<line x1="54.1528" y1="33.4215" x2="61.1787" y2="37.4779" stroke="#4BC3EF" stroke-width="4" stroke-linecap="round"/>
<line x1="2" y1="-2" x2="47.2082" y2="-2" transform="matrix(0.258819 0.965926 0.965926 -0.258819 59.3118 22.3206)" stroke="#1BADDE" stroke-width="4" stroke-linecap="round"/>
<line x1="34.7024" y1="72.7387" x2="47.9278" y2="65.103" stroke="#92CDE4" stroke-width="4" stroke-linecap="round"/>
<line x1="2" y1="-2" x2="17.2713" y2="-2" transform="matrix(0.5 0.866025 0.866025 -0.5 41.5728 47.0981)" stroke="#92CDE4" stroke-width="4" stroke-linecap="round"/>
<line x1="30.7305" y1="66.5016" x2="37.7564" y2="62.4452" stroke="#4BC3EF" stroke-width="4" stroke-linecap="round"/>
<line x1="2" y1="-2" x2="10.1128" y2="-2" transform="matrix(0.5 0.866025 0.866025 -0.5 34.9976 50.5767)" stroke="#4BC3EF" stroke-width="4" stroke-linecap="round"/>
<line x1="25.6142" y1="57.0536" x2="69.282" y2="68.7543" stroke="#1BADDE" stroke-width="4" stroke-linecap="round"/>
<line x1="2" y1="-2" x2="17.2713" y2="-2" transform="matrix(1 0 0 -1 36.3941 84.2092)" stroke="#92CDE4" stroke-width="4" stroke-linecap="round"/>
<line x1="55.1643" y1="102.979" x2="55.1643" y2="87.7081" stroke="#92CDE4" stroke-width="4" stroke-linecap="round"/>
<line x1="2" y1="-2" x2="10.1128" y2="-2" transform="matrix(1 0 0 -1 36.0729 91.5967)" stroke="#4BC3EF" stroke-width="4" stroke-linecap="round"/>
<line x1="47.7308" y1="103.254" x2="47.7308" y2="95.1416" stroke="#4BC3EF" stroke-width="4" stroke-linecap="round"/>
<line x1="2" y1="-2" x2="47.2082" y2="-2" transform="matrix(0.707107 -0.707107 -0.707107 -0.707107 35.5376 104.337)" stroke="#1BADDE" stroke-width="4" stroke-linecap="round"/>
<path d="M79.6475 61.5119L80.3928 67.1904L82.5866 72.4807L78.0416 75.9654L74.5569 80.5104L69.2665 78.3167L63.5881 77.5714L62.8427 71.8929L60.649 66.6025L65.194 63.1179L68.6787 58.5728L73.9691 60.7666L79.6475 61.5119Z" fill="#D7E9FC"/>
<path fill-rule="evenodd" clip-rule="evenodd" d="M79.6476 61.5118L73.9691 60.7665L68.6787 58.5727L65.194 63.1178L60.649 66.6025L62.8428 71.8928L63.5881 77.5713L79.6476 61.5118Z" fill="#C0DBF2"/>
<defs>
<linearGradient id="paint0_linear_45_416" x1="71" y1="20" x2="71" y2="120" gradientUnits="userSpaceOnUse">
<stop stop-color="#CDE5FF"/>
<stop offset="1" stop-color="#F4F9FF" stop-opacity="0"/>
</linearGradient>
</defs>
</svg>
