<svg width="101" height="101" viewBox="0 0 101 101" fill="none" xmlns="http://www.w3.org/2000/svg">
<rect x="-0.5" y="0.5" width="99" height="99" transform="matrix(-1 0 0 1 100 0)" fill="url(#paint0_linear_45_429)" stroke="black"/>
<path d="M80.269 41.4915L62.3862 31.3713L43.914 20.9175C36.2477 16.5791 26.75 22.1173 26.75 30.926V51.5L26.75 72.074C26.75 80.8827 36.2477 86.4209 43.914 82.0824L62.3862 71.6287L80.2691 61.5085C88.0504 57.1049 88.0504 45.8951 80.269 41.4915Z" fill="#10994A"/>
<path d="M80.269 41.4915L62.3862 31.3713L43.914 20.9175C36.2477 16.5791 26.75 22.1173 26.75 30.926V51.5L26.75 72.074C26.75 80.8827 36.2477 86.4209 43.914 82.0824L62.3862 71.6287L80.2691 61.5085C88.0504 57.1049 88.0504 45.8951 80.269 41.4915Z" stroke="#074220" stroke-width="3"/>
<path d="M80.269 41.4915L62.3862 31.3713L43.914 20.9175C36.2477 16.5791 26.75 22.1173 26.75 30.926V51.5L26.75 72.074C26.75 80.8827 36.2477 86.4209 43.914 82.0824L62.3862 71.6287L80.2691 61.5085C88.0504 57.1049 88.0504 45.8951 80.269 41.4915Z" stroke="black" stroke-opacity="0.2" stroke-width="3"/>
<path d="M47 53L84 53" stroke="#074220" stroke-width="5" stroke-linecap="round" stroke-linejoin="bevel"/>
<path d="M47 53L84 53" stroke="black" stroke-opacity="0.2" stroke-width="5" stroke-linecap="round" stroke-linejoin="bevel"/>
<defs>
<linearGradient id="paint0_linear_45_429" x1="50" y1="0" x2="50" y2="100" gradientUnits="userSpaceOnUse">
<stop stop-color="#AF7954"/>
<stop offset="1" stop-color="#E2B291"/>
</linearGradient>
</defs>
</svg>
