<svg width="100" height="100" viewBox="0 0 100 100" fill="none" xmlns="http://www.w3.org/2000/svg">
<rect x="-0.5" y="0.5" width="99" height="99" transform="matrix(-1 0 0 1 99 0)" fill="url(#paint0_linear_45_431)" stroke="black"/>
<path d="M25 52.6724C25 83.6724 75 83.6724 75 52.6724" stroke="#074220" stroke-width="5" stroke-linecap="round" stroke-linejoin="bevel"/>
<path d="M25 52.6724C25 83.6724 75 83.6724 75 52.6724" stroke="black" stroke-opacity="0.2" stroke-width="5" stroke-linecap="round" stroke-linejoin="bevel"/>
<path d="M75 51.9224C75 20.9224 25 20.9224 25 51.9224" stroke="#074220" stroke-width="5" stroke-linecap="round" stroke-linejoin="bevel"/>
<path d="M75 51.9224C75 20.9224 25 20.9224 25 51.9224" stroke="black" stroke-opacity="0.2" stroke-width="5" stroke-linecap="round" stroke-linejoin="bevel"/>
<circle cx="25" cy="25" r="24.5" transform="matrix(-1 0 0 1 74.7245 26)" fill="#10994A"/>
<circle cx="25" cy="25" r="24.5" transform="matrix(-1 0 0 1 74.7245 26)" stroke="#074220"/>
<circle cx="25" cy="25" r="24.5" transform="matrix(-1 0 0 1 74.7245 26)" stroke="black" stroke-opacity="0.2"/>
<defs>
<linearGradient id="paint0_linear_45_431" x1="50" y1="0" x2="50" y2="100" gradientUnits="userSpaceOnUse">
<stop stop-color="#AF7954"/>
<stop offset="1" stop-color="#E2B291"/>
</linearGradient>
</defs>
</svg>
