<svg width="686" height="637" viewBox="0 0 686 637" fill="none" xmlns="http://www.w3.org/2000/svg">
<ellipse cx="209.085" cy="549.601" rx="47.5" ry="85" transform="rotate(56.4009 209.085 549.601)" fill="#764700"/>
<ellipse cx="47.5" cy="85" rx="47.5" ry="85" transform="matrix(-0.553379 0.83293 0.83293 0.553379 432.571 463)" fill="#764700"/>
<circle cx="50" cy="50" r="50" transform="matrix(-0.392663 0.919682 0.919682 0.392663 114.573 273.153)" fill="#764700"/>
<path d="M123.28 385.603C139.47 392.516 156.008 398.171 171.952 402.246C187.896 406.321 202.932 408.736 216.203 409.354C229.474 409.971 240.719 408.779 249.296 405.845C257.874 402.911 263.615 398.293 266.194 392.254C268.772 386.216 268.136 378.875 264.323 370.65C260.509 362.426 253.593 353.48 243.968 344.322C234.344 335.165 222.2 325.975 208.229 317.278C194.259 308.581 178.736 300.547 162.547 293.635L142.913 339.619L123.28 385.603Z" fill="#764700"/>
<circle cx="35" cy="35" r="35" transform="matrix(-0.392663 0.919682 0.919682 0.392663 121.486 294)" fill="#B38D67"/>
<circle cx="544.903" cy="338.77" r="50" transform="rotate(66.8797 544.903 338.77)" fill="#764700"/>
<path d="M562.547 385.603C546.357 392.516 529.818 398.171 513.875 402.246C497.931 406.321 482.895 408.736 469.624 409.354C456.353 409.971 445.108 408.779 436.531 405.845C427.953 402.911 422.211 398.293 419.633 392.254C417.055 386.216 417.691 378.875 421.504 370.65C425.317 362.426 432.234 353.48 441.858 344.322C451.483 335.165 463.627 325.975 477.597 317.278C491.568 308.581 507.091 300.547 523.28 293.635L542.913 339.619L562.547 385.603Z" fill="#764700"/>
<circle cx="547.932" cy="339.932" r="35" transform="rotate(66.8797 547.932 339.932)" fill="#B38D67"/>
<ellipse cx="151.496" cy="550.496" rx="50" ry="66.6667" transform="rotate(-45 151.496 550.496)" fill="#764700"/>
<path d="M170.45 530.233C193.054 552.837 199.074 583.465 183.896 598.643C168.718 613.821 138.09 607.801 115.486 585.197C92.8821 562.593 86.8622 531.965 102.04 516.787C117.218 501.609 147.846 507.629 170.45 530.233Z" fill="#B38D67"/>
<path fill-rule="evenodd" clip-rule="evenodd" d="M115.486 585.197C138.09 607.801 168.718 613.821 183.896 598.643C183.896 598.643 141.885 584.516 142.968 557.715C144.051 530.914 116.939 507.343 102.04 516.787C86.8622 531.965 92.8821 562.593 115.486 585.197Z" fill="#9C7A58"/>
<ellipse cx="50" cy="66.6667" rx="50" ry="66.6667" transform="matrix(-0.707107 -0.707107 -0.707107 0.707107 618.992 538.711)" fill="#764700"/>
<path d="M515.928 531.928C493.324 554.532 487.304 585.16 502.482 600.338C517.66 615.516 548.288 609.496 570.892 586.892C593.496 564.288 599.516 533.66 584.338 518.482C569.16 503.304 538.532 509.324 515.928 531.928Z" fill="#B38D67"/>
<path fill-rule="evenodd" clip-rule="evenodd" d="M570.892 586.892C548.288 609.496 517.66 615.516 502.482 600.338C502.482 600.338 544.493 586.211 543.41 559.41C542.327 532.609 569.439 509.038 584.338 518.482C599.516 533.66 593.496 564.288 570.892 586.892Z" fill="#9C7A58"/>
<path d="M490 431C490 531.516 422.843 613 340 613C257.157 613 190 531.516 190 431C190 330.484 257.157 249 340 249C422.843 249 490 330.484 490 431Z" fill="#764700"/>
<path fill-rule="evenodd" clip-rule="evenodd" d="M190 431C190 531.516 259 621 353.5 612.5C360.974 615.767 286.5 480.5 336 441.5C385.5 402.5 391.031 286.354 340 249C257.157 249 190 330.484 190 431Z" fill="#613A00"/>
<path d="M440 440.333C440 513.971 395.228 573.667 340 573.667C284.772 573.667 240 513.971 240 440.333C240 366.695 284.772 307 340 307C395.228 307 440 366.695 440 440.333Z" fill="#9C7A58"/>
<path fill-rule="evenodd" clip-rule="evenodd" d="M340 573.667C395.228 573.667 440 513.971 440 440.333C440 366.695 395.228 307 340 307C382.066 321.206 392.045 405.84 340 440.333C287.955 474.827 340 573.667 340 573.667Z" fill="#B38D67"/>
<path d="M217.891 180.514C203.102 179.357 188.989 173.84 177.336 164.662C165.683 155.483 157.014 143.056 152.424 128.95C147.834 114.844 147.529 99.6945 151.55 85.416C155.57 71.1376 163.734 58.372 175.009 48.7334C186.285 39.0948 200.165 33.0163 214.895 31.2663C229.625 29.5164 244.543 32.1738 257.763 38.9023C270.983 45.6309 281.91 56.1285 289.164 69.0676C296.418 82.0067 299.671 96.8062 298.514 111.595L223.743 105.743L217.891 180.514Z" fill="#764700"/>
<path d="M466.595 180.514C481.383 179.357 495.496 173.84 507.149 164.662C518.802 155.483 527.472 143.056 532.062 128.95C536.652 114.844 536.956 99.6945 532.936 85.416C528.915 71.1376 520.751 58.372 509.476 48.7334C498.201 39.0948 484.32 33.0163 469.59 31.2663C454.86 29.5164 439.942 32.1738 426.722 38.9023C413.503 45.6309 402.575 56.1285 395.321 69.0676C388.068 82.0067 384.814 96.8062 385.971 111.595L460.743 105.743L466.595 180.514Z" fill="#764700"/>
<path d="M469.396 154.343C479.255 153.571 488.664 149.893 496.433 143.774C504.201 137.656 509.981 129.37 513.041 119.967C516.101 110.563 516.304 100.463 513.624 90.9441C510.944 81.4251 505.501 72.9147 497.984 66.489C490.467 60.0633 481.214 56.0109 471.394 54.8443C461.574 53.6777 451.628 55.4492 442.815 59.9349C434.002 64.4206 426.717 71.419 421.881 80.0451C417.045 88.6712 414.876 98.5375 415.648 108.396L465.495 104.495L469.396 154.343Z" fill="#B38D67"/>
<path d="M214.594 154.343C204.735 153.571 195.326 149.893 187.558 143.774C179.789 137.656 174.009 129.37 170.949 119.967C167.889 110.563 167.686 100.463 170.366 90.9441C173.047 81.4251 178.489 72.9147 186.006 66.489C193.523 60.0633 202.777 56.0109 212.597 54.8443C222.417 53.6777 232.362 55.4492 241.175 59.9349C249.988 64.4206 257.274 71.419 262.109 80.0451C266.945 88.6712 269.114 98.5375 268.343 108.396L218.495 104.495L214.594 154.343Z" fill="#B38D67"/>
<circle cx="340" cy="187" r="150" fill="#613A00"/>
<ellipse cx="357" cy="187" rx="133" ry="150" fill="#764700"/>
<rect x="253" y="137" width="50" height="50" rx="25" fill="black"/>
<rect x="377" y="137" width="50" height="50" rx="25" fill="black"/>
<circle cx="75" cy="75" r="75" transform="matrix(0.760123 0.649779 0.649779 -0.760123 234 243.018)" fill="#B38D67"/>
<rect x="323" y="194" width="35" height="35" rx="17.5" fill="black"/>
<path d="M274.593 324.894C274.69 315.954 284.506 310.54 292.12 315.226L309.619 325.997L327.694 337.123C335.196 341.741 334.933 352.732 327.22 356.986L309.205 366.923L291.19 376.86C283.477 381.114 274.04 375.473 274.136 366.665L274.368 345.441L274.593 324.894Z" fill="#E34E4E"/>
<path d="M274.593 324.894C274.69 315.954 284.506 310.54 292.12 315.226L309.619 325.997L327.694 337.123C335.196 341.741 334.933 352.732 327.22 356.986L309.205 366.923L291.19 376.86C283.477 381.114 274.04 375.473 274.136 366.665L274.368 345.441L274.593 324.894Z" stroke="#EA2F2F" stroke-width="3"/>
<path d="M274.593 324.894C274.69 315.954 284.506 310.54 292.12 315.226L309.619 325.997L327.694 337.123C335.196 341.741 334.933 352.732 327.22 356.986L309.205 366.923L291.19 376.86C283.477 381.114 274.04 375.473 274.136 366.665L274.368 345.441L274.593 324.894Z" stroke="black" stroke-opacity="0.2" stroke-width="3"/>
<path d="M348.731 356.509C340.95 352.105 340.95 340.895 348.731 336.492L366.614 326.371L385.086 315.918C392.752 311.579 402.25 317.117 402.25 325.926V346.5V367.074C402.25 375.883 392.752 381.421 385.086 377.083L366.614 366.629L348.731 356.509Z" fill="#E34E4E"/>
<path d="M348.731 356.509C340.95 352.105 340.95 340.895 348.731 336.492L366.614 326.371L385.086 315.918C392.752 311.579 402.25 317.117 402.25 325.926V346.5V367.074C402.25 375.883 392.752 381.421 385.086 377.083L366.614 366.629L348.731 356.509Z" stroke="#EA2F2F" stroke-width="3"/>
<path d="M348.731 356.509C340.95 352.105 340.95 340.895 348.731 336.492L366.614 326.371L385.086 315.918C392.752 311.579 402.25 317.117 402.25 325.926V346.5V367.074C402.25 375.883 392.752 381.421 385.086 377.083L366.614 366.629L348.731 356.509Z" stroke="black" stroke-opacity="0.2" stroke-width="3"/>
<path d="M388 349L293 349" stroke="#EA2F2F" stroke-width="5" stroke-linecap="round" stroke-linejoin="bevel"/>
<path d="M388 349L293 349" stroke="black" stroke-opacity="0.2" stroke-width="5" stroke-linecap="round" stroke-linejoin="bevel"/>
<path d="M365 349C365 380 315 380 315 349" stroke="#EA2F2F" stroke-width="5" stroke-linecap="round" stroke-linejoin="bevel"/>
<path d="M365 349C365 380 315 380 315 349" stroke="black" stroke-opacity="0.2" stroke-width="5" stroke-linecap="round" stroke-linejoin="bevel"/>
<path d="M315 348.25C315 317.25 365 317.25 365 348.25" stroke="#EA2F2F" stroke-width="5" stroke-linecap="round" stroke-linejoin="bevel"/>
<path d="M315 348.25C315 317.25 365 317.25 365 348.25" stroke="black" stroke-opacity="0.2" stroke-width="5" stroke-linecap="round" stroke-linejoin="bevel"/>
<circle cx="340.276" cy="347.328" r="24.5" fill="#E34E4E"/>
<circle cx="340.276" cy="347.328" r="24.5" stroke="#EA2F2F"/>
<circle cx="340.276" cy="347.328" r="24.5" stroke="black" stroke-opacity="0.2"/>
</svg>
