<svg width="686" height="637" viewBox="0 0 686 637" fill="none" xmlns="http://www.w3.org/2000/svg">
<ellipse cx="209.085" cy="549.601" rx="47.5" ry="85" transform="rotate(56.4009 209.085 549.601)" fill="#764700"/>
<ellipse cx="47.5" cy="85" rx="47.5" ry="85" transform="matrix(-0.553379 0.83293 0.83293 0.553379 432.571 463)" fill="#764700"/>
<circle cx="50" cy="50" r="50" transform="matrix(-0.392663 0.919682 0.919682 0.392663 114.573 273.153)" fill="#764700"/>
<path d="M123.28 385.603C139.47 392.516 156.008 398.171 171.952 402.246C187.896 406.321 202.932 408.736 216.203 409.354C229.474 409.971 240.719 408.779 249.296 405.845C257.874 402.911 263.615 398.293 266.194 392.254C268.772 386.216 268.136 378.875 264.323 370.65C260.509 362.426 253.593 353.48 243.968 344.322C234.344 335.165 222.2 325.975 208.229 317.278C194.259 308.581 178.736 300.547 162.547 293.635L142.913 339.619L123.28 385.603Z" fill="#764700"/>
<circle cx="35" cy="35" r="35" transform="matrix(-0.392663 0.919682 0.919682 0.392663 121.486 294)" fill="#A26B34"/>
<circle cx="544.903" cy="338.77" r="50" transform="rotate(66.8797 544.903 338.77)" fill="#764700"/>
<path d="M562.547 385.603C546.357 392.516 529.818 398.171 513.875 402.246C497.931 406.321 482.895 408.736 469.624 409.354C456.353 409.971 445.108 408.779 436.531 405.845C427.953 402.911 422.211 398.293 419.633 392.254C417.055 386.216 417.691 378.875 421.504 370.65C425.317 362.426 432.234 353.48 441.858 344.322C451.483 335.165 463.627 325.975 477.597 317.278C491.568 308.581 507.091 300.547 523.28 293.635L542.913 339.619L562.547 385.603Z" fill="#764700"/>
<circle cx="547.932" cy="339.932" r="35" transform="rotate(66.8797 547.932 339.932)" fill="#A26B34"/>
<ellipse cx="151.496" cy="550.496" rx="50" ry="66.6667" transform="rotate(-45 151.496 550.496)" fill="#764700"/>
<ellipse cx="142.968" cy="557.715" rx="38.8653" ry="57.8808" transform="rotate(-45 142.968 557.715)" fill="#A26B34"/>
<ellipse cx="50" cy="66.6667" rx="50" ry="66.6667" transform="matrix(-0.707107 -0.707107 -0.707107 0.707107 618.992 538.711)" fill="#764700"/>
<ellipse cx="38.8653" cy="57.8808" rx="38.8653" ry="57.8808" transform="matrix(-0.707107 -0.707107 -0.707107 0.707107 611.82 545.964)" fill="#A26B34"/>
<ellipse cx="340" cy="429" rx="150" ry="182" fill="#764700"/>
<ellipse cx="340" cy="438.333" rx="100" ry="133.333" fill="#A26B34"/>
<path d="M217.891 180.514C203.102 179.357 188.989 173.84 177.336 164.662C165.683 155.483 157.014 143.056 152.424 128.95C147.834 114.844 147.529 99.6945 151.55 85.416C155.57 71.1376 163.734 58.372 175.009 48.7334C186.285 39.0948 200.165 33.0163 214.895 31.2663C229.625 29.5164 244.543 32.1738 257.763 38.9023C270.983 45.6309 281.91 56.1285 289.164 69.0676C296.418 82.0067 299.671 96.8062 298.514 111.595L223.743 105.743L217.891 180.514Z" fill="#764700"/>
<path d="M466.595 180.514C481.383 179.357 495.496 173.84 507.149 164.662C518.802 155.483 527.472 143.056 532.062 128.95C536.652 114.844 536.956 99.6945 532.936 85.416C528.915 71.1376 520.751 58.372 509.476 48.7334C498.201 39.0948 484.32 33.0163 469.59 31.2663C454.86 29.5164 439.942 32.1738 426.722 38.9023C413.503 45.6309 402.575 56.1285 395.321 69.0676C388.068 82.0067 384.814 96.8062 385.971 111.595L460.743 105.743L466.595 180.514Z" fill="#764700"/>
<path d="M469.396 154.343C479.255 153.571 488.664 149.893 496.433 143.774C504.201 137.656 509.981 129.37 513.041 119.967C516.101 110.563 516.304 100.463 513.624 90.9441C510.944 81.4251 505.501 72.9147 497.984 66.489C490.467 60.0633 481.214 56.0109 471.394 54.8443C461.574 53.6777 451.628 55.4492 442.815 59.9349C434.002 64.4206 426.717 71.419 421.881 80.0451C417.045 88.6712 414.876 98.5375 415.648 108.396L465.495 104.495L469.396 154.343Z" fill="#A26B34"/>
<path d="M214.594 154.343C204.735 153.571 195.326 149.893 187.558 143.774C179.789 137.656 174.009 129.37 170.949 119.967C167.889 110.563 167.686 100.463 170.366 90.9441C173.047 81.4251 178.489 72.9147 186.006 66.489C193.523 60.0633 202.777 56.0109 212.597 54.8443C222.417 53.6777 232.362 55.4492 241.175 59.9349C249.988 64.4206 257.274 71.419 262.109 80.0451C266.945 88.6712 269.114 98.5375 268.343 108.396L218.495 104.495L214.594 154.343Z" fill="#A26B34"/>
<circle cx="340" cy="187" r="150" fill="#764700"/>
<rect x="253" y="137" width="50" height="50" rx="25" fill="black"/>
<rect x="377" y="137" width="50" height="50" rx="25" fill="black"/>
<circle cx="75" cy="75" r="75" transform="matrix(0.760123 0.649779 0.649779 -0.760123 234 243.018)" fill="#A26B34"/>
<rect x="323" y="194" width="35" height="35" rx="17.5" fill="black"/>
<path d="M273.093 324.878C273.203 314.771 284.299 308.651 292.906 313.949L310.405 324.72L328.48 335.846C336.96 341.065 336.664 353.49 327.945 358.3L309.93 368.237L291.914 378.173C283.195 382.983 272.528 376.605 272.636 366.648L272.868 345.424L273.093 324.878Z" fill="#E34E4E"/>
<path d="M347.992 357.814C339.196 352.836 339.196 340.164 347.992 335.186L365.875 325.066L384.347 314.612C393.013 309.708 403.75 315.968 403.75 325.926V346.5V367.074C403.75 377.032 393.013 383.292 384.347 378.388L365.875 367.934L347.992 357.814Z" fill="#E34E4E"/>
<path d="M388 349L293 349" stroke="#EA2F2F" stroke-width="5" stroke-linecap="round" stroke-linejoin="bevel"/>
<path d="M365 349C365 380 315 380 315 349" stroke="#EA2F2F" stroke-width="5" stroke-linecap="round" stroke-linejoin="bevel"/>
<path d="M315 348.25C315 317.25 365 317.25 365 348.25" stroke="#EA2F2F" stroke-width="5" stroke-linecap="round" stroke-linejoin="bevel"/>
<circle cx="340.276" cy="347.328" r="25" fill="#E34E4E"/>
</svg>
