<svg width="142" height="141" viewBox="0 0 142 141" fill="none" xmlns="http://www.w3.org/2000/svg">
<rect x="20.5" y="20.5" width="99" height="99" fill="url(#paint0_linear_45_417)" stroke="black"/>
<path d="M46.5575 63.6781L60.6188 61.5028L62.0657 61.279L62.2895 59.8321L64.4648 45.7708L73.3793 56.8606L74.2966 58.0017L75.6616 57.4722L88.9267 52.3254L83.7799 65.5904L83.2503 66.9554L84.3914 67.8727L95.4812 76.7872L81.4199 78.9625L79.973 79.1863L79.7492 80.6332L77.5739 94.6945L68.6594 83.6047L67.7421 82.4636L66.3771 82.9932L53.1121 88.14L58.2588 74.8749L58.7884 73.5099L57.6473 72.5926L46.5575 63.6781Z" stroke="#A5E3F0" stroke-width="4" stroke-linecap="round"/>
<line x1="38.394" y1="54.2075" x2="53.6654" y2="54.2075" stroke="#92CDE4" stroke-width="4" stroke-linecap="round"/>
<line x1="2" y1="-2" x2="17.2713" y2="-2" transform="matrix(0 1 1 0 57.1643 35.4373)" stroke="#92CDE4" stroke-width="4" stroke-linecap="round"/>
<line x1="38.0729" y1="46.8201" x2="46.1857" y2="46.8201" stroke="#4BC3EF" stroke-width="4" stroke-linecap="round"/>
<line x1="2" y1="-2" x2="10.1128" y2="-2" transform="matrix(0 1 1 0 49.7307 35.1624)" stroke="#4BC3EF" stroke-width="4" stroke-linecap="round"/>
<line x1="38.3659" y1="36.0796" x2="70.333" y2="68.0466" stroke="#1BADDE" stroke-width="4" stroke-linecap="round"/>
<line x1="68.4171" y1="34.0721" x2="76.0528" y2="47.2975" stroke="#92CDE4" stroke-width="4" stroke-linecap="round"/>
<line x1="2" y1="-2" x2="17.2713" y2="-2" transform="matrix(-0.866025 0.5 0.5 0.866025 94.0578 40.9426)" stroke="#92CDE4" stroke-width="4" stroke-linecap="round"/>
<line x1="74.6542" y1="30.1005" x2="78.7106" y2="37.1263" stroke="#4BC3EF" stroke-width="4" stroke-linecap="round"/>
<line x1="2" y1="-2" x2="10.1128" y2="-2" transform="matrix(-0.866025 0.5 0.5 0.866025 90.5792 34.3674)" stroke="#4BC3EF" stroke-width="4" stroke-linecap="round"/>
<line x1="84.1023" y1="24.9839" x2="72.4015" y2="68.6517" stroke="#1BADDE" stroke-width="4" stroke-linecap="round"/>
<line x1="2" y1="-2" x2="17.2713" y2="-2" transform="matrix(-0.866025 -0.5 -0.5 0.866025 108.03 75.4705)" stroke="#92CDE4" stroke-width="4" stroke-linecap="round"/>
<line x1="101.159" y1="49.83" x2="93.5236" y2="63.0553" stroke="#92CDE4" stroke-width="4" stroke-linecap="round"/>
<line x1="2" y1="-2" x2="10.1128" y2="-2" transform="matrix(-0.866025 -0.5 -0.5 0.866025 112.001 69.2334)" stroke="#4BC3EF" stroke-width="4" stroke-linecap="round"/>
<line x1="107.734" y1="53.3085" x2="103.678" y2="60.3344" stroke="#4BC3EF" stroke-width="4" stroke-linecap="round"/>
<line x1="2" y1="-2" x2="47.2082" y2="-2" transform="matrix(-0.965926 0.258819 0.258819 0.965926 118.835 58.4675)" stroke="#1BADDE" stroke-width="4" stroke-linecap="round"/>
<line x1="2" y1="-2" x2="17.2713" y2="-2" transform="matrix(0.866025 0.5 0.5 -0.866025 33.9177 64.8936)" stroke="#92CDE4" stroke-width="4" stroke-linecap="round"/>
<line x1="40.7881" y1="90.5341" x2="48.4238" y2="77.3087" stroke="#92CDE4" stroke-width="4" stroke-linecap="round"/>
<line x1="2" y1="-2" x2="10.1128" y2="-2" transform="matrix(0.866025 0.5 0.5 -0.866025 29.9459 71.1304)" stroke="#4BC3EF" stroke-width="4" stroke-linecap="round"/>
<line x1="34.213" y1="87.0555" x2="38.2694" y2="80.0297" stroke="#4BC3EF" stroke-width="4" stroke-linecap="round"/>
<line x1="2" y1="-2" x2="47.2082" y2="-2" transform="matrix(0.965926 -0.258819 -0.258819 -0.965926 23.1121 81.8965)" stroke="#1BADDE" stroke-width="4" stroke-linecap="round"/>
<line x1="73.53" y1="106.506" x2="65.8944" y2="93.2806" stroke="#92CDE4" stroke-width="4" stroke-linecap="round"/>
<line x1="2" y1="-2" x2="17.2713" y2="-2" transform="matrix(0.866025 -0.5 -0.5 -0.866025 47.8894 99.6355)" stroke="#92CDE4" stroke-width="4" stroke-linecap="round"/>
<line x1="67.2931" y1="110.478" x2="63.2367" y2="103.452" stroke="#4BC3EF" stroke-width="4" stroke-linecap="round"/>
<line x1="2" y1="-2" x2="10.1128" y2="-2" transform="matrix(0.866025 -0.5 -0.5 -0.866025 51.368 106.211)" stroke="#4BC3EF" stroke-width="4" stroke-linecap="round"/>
<line x1="57.8449" y1="115.594" x2="69.5457" y2="71.9264" stroke="#1BADDE" stroke-width="4" stroke-linecap="round"/>
<line x1="2" y1="-2" x2="17.2713" y2="-2" transform="matrix(0 -1 -1 0 85.0006 104.814)" stroke="#92CDE4" stroke-width="4" stroke-linecap="round"/>
<line x1="103.771" y1="86.0439" x2="88.4995" y2="86.0439" stroke="#92CDE4" stroke-width="4" stroke-linecap="round"/>
<line x1="2" y1="-2" x2="10.1128" y2="-2" transform="matrix(0 -1 -1 0 92.3879 105.135)" stroke="#4BC3EF" stroke-width="4" stroke-linecap="round"/>
<line x1="104.046" y1="93.4775" x2="95.933" y2="93.4775" stroke="#4BC3EF" stroke-width="4" stroke-linecap="round"/>
<line x1="2" y1="-2" x2="47.2082" y2="-2" transform="matrix(-0.707107 -0.707107 -0.707107 0.707107 105.128 105.671)" stroke="#1BADDE" stroke-width="4" stroke-linecap="round"/>
<path d="M62.3033 61.5606L67.9817 60.8153L73.2721 58.6215L76.7568 63.1666L81.3018 66.6512L79.1081 71.9416L78.3627 77.6201L72.6843 78.3654L67.3939 80.5591L63.9092 76.0141L59.3642 72.5294L61.558 67.2391L62.3033 61.5606Z" fill="#D7E9FC"/>
<path fill-rule="evenodd" clip-rule="evenodd" d="M62.3033 61.5607L61.558 67.2392L59.3642 72.5295L63.9093 76.0142L67.394 80.5592L72.6843 78.3655L78.3628 77.6202L62.3033 61.5607Z" fill="#C0DBF2"/>
<defs>
<linearGradient id="paint0_linear_45_417" x1="70" y1="20" x2="70" y2="120" gradientUnits="userSpaceOnUse">
<stop stop-color="#CDE5FF"/>
<stop offset="1" stop-color="#F4F9FF" stop-opacity="0"/>
</linearGradient>
</defs>
</svg>
