<svg width="609" height="847" viewBox="0 0 609 847" fill="none" xmlns="http://www.w3.org/2000/svg">
<ellipse cx="222.957" cy="733.313" rx="47.5" ry="85" transform="rotate(-1.6256 222.957 733.313)" fill="#89563A"/>
<ellipse cx="193.221" cy="782.639" rx="50" ry="66.6667" transform="rotate(-103.026 193.221 782.639)" fill="#AF7954"/>
<ellipse cx="47.5" cy="85" rx="47.5" ry="85" transform="matrix(-0.999598 -0.0283683 -0.0283683 0.999598 437.784 649.695)" fill="#89563A"/>
<ellipse cx="50" cy="66.6667" rx="50" ry="66.6667" transform="matrix(0.225401 -0.974266 -0.974266 -0.225401 471.309 846.379)" fill="#AF7954"/>
<ellipse cx="47.5" cy="85" rx="47.5" ry="85" transform="matrix(-0.646715 0.762732 0.762732 0.646715 419.451 477.458)" fill="#89563A"/>
<ellipse cx="50" cy="66.6667" rx="50" ry="66.6667" transform="matrix(-0.619844 -0.784725 -0.784725 0.619844 593.963 574.174)" fill="#89563A"/>
<ellipse cx="49.1454" cy="57.8808" rx="49.1454" ry="57.8808" transform="matrix(-0.619844 -0.784725 -0.784725 0.619844 593.766 575.131)" fill="black"/>
<ellipse cx="154.829" cy="567.658" rx="47.5" ry="85" transform="rotate(49.7056 154.829 567.658)" fill="#89563A"/>
<ellipse cx="97.7372" cy="575.261" rx="50" ry="66.6667" transform="rotate(-51.6952 97.7372 575.261)" fill="#89563A"/>
<ellipse cx="90.5103" cy="571.443" rx="49.1454" ry="57.8808" transform="rotate(-51.6952 90.5103 571.443)" fill="black"/>
<path d="M456 573C456 673.516 388.842 755 306 755C223.157 755 156 673.516 156 573C156 472.485 223.157 391 306 391C388.842 391 456 472.485 456 573Z" fill="#C68B63"/>
<path fill-rule="evenodd" clip-rule="evenodd" d="M156 573C156 673.516 225 763 319.5 754.5C326.974 757.767 252.5 622.5 302 583.5C351.5 544.5 357.031 428.355 306 391C223.157 391 156 472.485 156 573Z" fill="#AF7954"/>
<path d="M406 582.334C406 655.972 361.228 715.667 306 715.667C250.771 715.667 206 655.972 206 582.334C206 508.696 250.771 449 306 449C361.228 449 406 508.696 406 582.334Z" fill="#E2B291"/>
<path fill-rule="evenodd" clip-rule="evenodd" d="M306 715.667C361.228 715.667 406 655.972 406 582.334C406 508.696 361.228 449 306 449C348.066 463.207 358.044 547.84 306 582.334C253.955 616.827 306 715.667 306 715.667Z" fill="#F9CBAC"/>
<path d="M188.417 764.403C217.959 759.194 244.603 770.256 247.927 789.11C251.252 807.964 229.998 827.471 200.456 832.68C170.914 837.889 144.271 826.828 140.946 807.974C137.622 789.119 158.875 769.612 188.417 764.403Z" fill="#E2B291"/>
<path fill-rule="evenodd" clip-rule="evenodd" d="M247.927 789.11C244.603 770.256 217.959 759.194 188.417 764.403C158.875 769.612 137.622 789.119 140.946 807.974C144.113 792.608 177.466 783.215 194.437 798.542C211.408 813.869 247.927 789.11 247.927 789.11Z" fill="#F9CBAC"/>
<path d="M423.529 764.432C393.987 759.223 367.344 770.284 364.019 789.138C360.695 807.992 381.948 827.499 411.49 832.708C441.032 837.918 467.676 826.856 471 808.002C474.325 789.148 453.071 769.641 423.529 764.432Z" fill="#E2B291"/>
<path fill-rule="evenodd" clip-rule="evenodd" d="M364.019 789.138C367.344 770.284 393.987 759.223 423.529 764.432C453.071 769.641 474.325 789.148 471 808.002C467.833 792.636 434.481 783.243 417.51 798.57C400.539 813.897 364.019 789.138 364.019 789.138Z" fill="#F9CBAC"/>
<ellipse cx="194.358" cy="334.249" rx="125.998" ry="54.5" transform="rotate(30.0359 194.358 334.249)" fill="#89563A"/>
<ellipse cx="194.358" cy="334.249" rx="125.998" ry="54.5" transform="rotate(30.0359 194.358 334.249)" fill="#89563A"/>
<path d="M322.126 408.122C326.069 401.302 326.254 392.417 322.668 382.08C319.083 371.743 311.812 360.198 301.356 348.243C290.9 336.287 277.508 324.205 262.103 312.828C246.697 301.45 229.645 291.049 212.121 282.34C194.596 273.631 177.017 266.822 160.592 262.382C144.168 257.941 129.29 255.975 116.984 256.619C104.677 257.263 95.2348 260.501 89.3068 266.11C83.3788 271.72 81.1062 279.567 82.6457 289.112L203.703 339.652L322.126 408.122Z" fill="#89563A"/>
<path d="M322.126 408.122C326.069 401.302 326.254 392.417 322.668 382.08C319.083 371.743 311.812 360.198 301.356 348.243C290.9 336.287 277.508 324.205 262.103 312.828C246.697 301.45 229.645 291.049 212.121 282.34C194.596 273.631 177.017 266.822 160.592 262.382C144.168 257.941 129.29 255.975 116.984 256.619C104.677 257.263 95.2348 260.501 89.3068 266.11C83.3788 271.72 81.1062 279.567 82.6457 289.112L203.703 339.652L322.126 408.122Z" fill="#AF7954"/>
<ellipse cx="125.998" cy="54.5" rx="125.998" ry="54.5" transform="matrix(-0.865712 0.500543 0.500543 0.865712 494.846 218)" fill="#89563A"/>
<ellipse cx="125.998" cy="54.5" rx="125.998" ry="54.5" transform="matrix(-0.865712 0.500543 0.500543 0.865712 494.846 218)" fill="#89563A"/>
<path d="M285.28 402.122C281.336 395.302 281.151 386.417 284.737 376.08C288.322 365.743 295.594 354.198 306.049 342.243C316.505 330.287 329.897 318.205 345.302 306.828C360.708 295.45 377.76 285.049 395.284 276.34C412.809 267.631 430.389 260.822 446.813 256.382C463.237 251.941 478.115 249.975 490.421 250.619C502.728 251.263 512.17 254.501 518.098 260.11C524.026 265.72 526.299 273.567 524.759 283.112L403.703 333.652L285.28 402.122Z" fill="#89563A"/>
<path d="M285.28 402.122C281.336 395.302 281.151 386.417 284.737 376.08C288.322 365.743 295.594 354.198 306.049 342.243C316.505 330.287 329.897 318.205 345.302 306.828C360.708 295.45 377.76 285.049 395.284 276.34C412.809 267.631 430.389 260.822 446.813 256.382C463.237 251.941 478.115 249.975 490.421 250.619C502.728 251.263 512.17 254.501 518.098 260.11C524.026 265.72 526.299 273.567 524.759 283.112L403.703 333.652L285.28 402.122Z" fill="#AF7954"/>
<path d="M186.503 172.998C183.701 172.612 181.03 171.572 178.706 169.961L108.896 121.58C94.6123 111.681 75.982 125.768 81.6149 142.209L107.818 218.689C109.543 223.722 113.406 227.734 118.37 229.649L182.949 254.556C187.51 256.315 192.591 256.143 197.023 254.08L273.584 218.436C289.859 210.859 286.228 186.736 268.443 184.286L186.503 172.998Z" fill="#FFC477"/>
<path d="M227.938 158.889C225.937 156.891 224.434 154.45 223.551 151.764L197.048 71.0689C191.625 54.5579 168.268 54.5578 162.845 71.0689L137.619 147.877C135.959 152.931 136.62 158.461 139.425 162.982L175.913 221.799C178.491 225.954 182.647 228.881 187.427 229.908L269.992 247.653C287.545 251.426 299.197 229.994 286.489 217.313L227.938 158.889Z" fill="#FFDAAA"/>
<path d="M425.279 172.998C428.08 172.612 430.751 171.572 433.075 169.961L502.885 121.58C517.169 111.681 535.799 125.768 530.167 142.209L503.963 218.689C502.239 223.722 498.376 227.734 493.412 229.649L428.833 254.556C424.271 256.315 419.19 256.143 414.758 254.08L338.198 218.436C321.922 210.859 325.554 186.736 343.339 184.286L425.279 172.998Z" fill="#FFC477"/>
<path d="M381.6 158.889C383.602 156.891 385.105 154.45 385.987 151.764L412.49 71.0689C417.913 54.5579 441.27 54.5578 446.693 71.0689L471.919 147.877C473.579 152.931 472.918 158.461 470.114 162.982L433.625 221.799C431.047 225.954 426.891 228.881 422.111 229.908L339.546 247.653C321.994 251.426 310.341 229.994 323.049 217.313L381.6 158.889Z" fill="#FFDAAA"/>
<circle cx="306" cy="331" r="150" fill="#CE926A"/>
<ellipse cx="322.5" cy="331" rx="133.5" ry="150" fill="#E2A77F"/>
<path d="M265 315L265 338M346 315V338" stroke="black" stroke-width="30" stroke-linecap="round"/>
<circle cx="308" cy="390" r="30" fill="#C93939"/>
<ellipse cx="313" cy="390" rx="25" ry="30" fill="#EA2F2F"/>
<path d="M258.12 459.227L275.618 469.998L293.694 481.124C301.195 485.741 300.933 496.732 293.22 500.987L275.205 510.924L257.19 520.86C249.476 525.115 240.04 519.473 240.136 510.665L240.368 489.441L240.592 468.895C240.69 459.954 250.506 454.54 258.12 459.227Z" fill="#10994A"/>
<path d="M258.12 459.227L275.618 469.998L293.694 481.124C301.195 485.741 300.933 496.732 293.22 500.987L275.205 510.924L257.19 520.86C249.476 525.115 240.04 519.473 240.136 510.665L240.368 489.441L240.592 468.895C240.69 459.954 250.506 454.54 258.12 459.227Z" stroke="#095228" stroke-width="3"/>
<path d="M258.12 459.227L275.618 469.998L293.694 481.124C301.195 485.741 300.933 496.732 293.22 500.987L275.205 510.924L257.19 520.86C249.476 525.115 240.04 519.473 240.136 510.665L240.368 489.441L240.592 468.895C240.69 459.954 250.506 454.54 258.12 459.227Z" stroke="black" stroke-opacity="0.2" stroke-width="3"/>
<path d="M314.731 480.492L332.614 470.372L351.086 459.918C358.752 455.58 368.25 461.118 368.25 469.927V490.501V511.075C368.25 519.883 358.752 525.421 351.086 521.083L332.614 510.629L314.731 500.509C306.949 496.105 306.949 484.896 314.731 480.492Z" fill="#10994A"/>
<path d="M314.731 480.492L332.614 470.372L351.086 459.918C358.752 455.58 368.25 461.118 368.25 469.927V490.501V511.075C368.25 519.883 358.752 525.421 351.086 521.083L332.614 510.629L314.731 500.509C306.949 496.105 306.949 484.896 314.731 480.492Z" stroke="#095228" stroke-width="3"/>
<path d="M314.731 480.492L332.614 470.372L351.086 459.918C358.752 455.58 368.25 461.118 368.25 469.927V490.501V511.075C368.25 519.883 358.752 525.421 351.086 521.083L332.614 510.629L314.731 500.509C306.949 496.105 306.949 484.896 314.731 480.492Z" stroke="black" stroke-opacity="0.2" stroke-width="3"/>
<path d="M354 493L259 493" stroke="#095228" stroke-width="5" stroke-linecap="round" stroke-linejoin="bevel"/>
<path d="M354 493L259 493" stroke="black" stroke-opacity="0.2" stroke-width="5" stroke-linecap="round" stroke-linejoin="bevel"/>
<path d="M331 493C331 524 281 524 281 493" stroke="#095228" stroke-width="5" stroke-linecap="round" stroke-linejoin="bevel"/>
<path d="M331 493C331 524 281 524 281 493" stroke="black" stroke-opacity="0.2" stroke-width="5" stroke-linecap="round" stroke-linejoin="bevel"/>
<path d="M281 492.25C281 461.25 331 461.25 331 492.25" stroke="#095228" stroke-width="5" stroke-linecap="round" stroke-linejoin="bevel"/>
<path d="M281 492.25C281 461.25 331 461.25 331 492.25" stroke="black" stroke-opacity="0.2" stroke-width="5" stroke-linecap="round" stroke-linejoin="bevel"/>
<circle cx="306.275" cy="491.328" r="24.5" fill="#10994A"/>
<circle cx="306.275" cy="491.328" r="24.5" stroke="#095228"/>
<circle cx="306.275" cy="491.328" r="24.5" stroke="black" stroke-opacity="0.2"/>
</svg>
