<svg width="661" height="650" viewBox="0 0 661 650" fill="none" xmlns="http://www.w3.org/2000/svg">
<path d="M238.88 167.026L326.07 230.853L330.205 233.88L334.34 230.853L421.53 167.026L409.849 274.448L409.295 279.543L413.983 281.61L512.855 325.205L413.983 368.8L409.295 370.867L409.849 375.962L421.53 483.384L334.34 419.557L330.205 416.53L326.07 419.557L238.88 483.384L250.562 375.962L251.115 370.867L246.427 368.8L147.555 325.205L246.427 281.61L251.115 279.543L250.562 274.448L238.88 167.026Z" stroke="#A5E3F0" stroke-width="14" stroke-linecap="round"/>
<line x1="243.899" y1="98" x2="324" y2="178.101" stroke="#92CDE4" stroke-width="14" stroke-linecap="round"/>
<line x1="7" y1="-7" x2="120.279" y2="-7" transform="matrix(-0.707107 0.707107 0.707107 0.707107 428 98)" stroke="#92CDE4" stroke-width="14" stroke-linecap="round"/>
<line x1="276.899" y1="62" x2="323.569" y2="108.669" stroke="#4BC3EF" stroke-width="14" stroke-linecap="round"/>
<line x1="7" y1="-7" x2="73" y2="-7" transform="matrix(-0.707107 0.707107 0.707107 0.707107 394.569 62)" stroke="#4BC3EF" stroke-width="14" stroke-linecap="round"/>
<line x1="331" y1="7" x2="331" y2="318" stroke="#1BADDE" stroke-width="14" stroke-linecap="round"/>
<line x1="482.537" y1="136.573" x2="453.219" y2="245.993" stroke="#92CDE4" stroke-width="14" stroke-linecap="round"/>
<line x1="7" y1="-7" x2="120.279" y2="-7" transform="matrix(-0.965926 -0.258819 -0.258819 0.965926 574.588 296.009)" stroke="#92CDE4" stroke-width="14" stroke-linecap="round"/>
<line x1="530.214" y1="147.152" x2="513.132" y2="210.903" stroke="#4BC3EF" stroke-width="14" stroke-linecap="round"/>
<line x1="7" y1="-7" x2="73" y2="-7" transform="matrix(-0.965926 -0.258819 -0.258819 0.965926 589.049 249.057)" stroke="#4BC3EF" stroke-width="14" stroke-linecap="round"/>
<line x1="604.896" y1="166.505" x2="335.562" y2="322.005" stroke="#1BADDE" stroke-width="14" stroke-linecap="round"/>
<line x1="7" y1="-7" x2="120.279" y2="-7" transform="matrix(-0.258819 -0.965926 -0.965926 0.258819 478.588 522.509)" stroke="#92CDE4" stroke-width="14" stroke-linecap="round"/>
<line x1="570.638" y1="363.073" x2="461.219" y2="392.392" stroke="#92CDE4" stroke-width="14" stroke-linecap="round"/>
<line x1="7" y1="-7" x2="73" y2="-7" transform="matrix(-0.258819 -0.965926 -0.965926 0.258819 526.265 511.93)" stroke="#4BC3EF" stroke-width="14" stroke-linecap="round"/>
<line x1="585.099" y1="410.026" x2="521.348" y2="427.108" stroke="#4BC3EF" stroke-width="14" stroke-linecap="round"/>
<line x1="7" y1="-7" x2="318" y2="-7" transform="matrix(-0.866025 -0.5 -0.5 0.866025 608.458 493.567)" stroke="#1BADDE" stroke-width="14" stroke-linecap="round"/>
<line x1="7" y1="-7" x2="120.279" y2="-7" transform="matrix(0.258819 0.965926 0.965926 -0.258819 181.871 127)" stroke="#92CDE4" stroke-width="14" stroke-linecap="round"/>
<line x1="89.8203" y1="286.436" x2="199.24" y2="257.117" stroke="#92CDE4" stroke-width="14" stroke-linecap="round"/>
<line x1="7" y1="-7" x2="73" y2="-7" transform="matrix(0.258819 0.965926 0.965926 -0.258819 134.194 137.579)" stroke="#4BC3EF" stroke-width="14" stroke-linecap="round"/>
<line x1="75.3591" y1="239.484" x2="139.11" y2="222.401" stroke="#4BC3EF" stroke-width="14" stroke-linecap="round"/>
<line x1="7" y1="-7" x2="318" y2="-7" transform="matrix(0.866025 0.5 0.5 -0.866025 52.0002 155.942)" stroke="#1BADDE" stroke-width="14" stroke-linecap="round"/>
<line x1="176.921" y1="513.936" x2="206.24" y2="404.517" stroke="#92CDE4" stroke-width="14" stroke-linecap="round"/>
<line x1="7" y1="-7" x2="120.279" y2="-7" transform="matrix(0.965926 0.258819 0.258819 -0.965926 84.8705 354.5)" stroke="#92CDE4" stroke-width="14" stroke-linecap="round"/>
<line x1="129.244" y1="503.357" x2="146.326" y2="439.606" stroke="#4BC3EF" stroke-width="14" stroke-linecap="round"/>
<line x1="7" y1="-7" x2="73" y2="-7" transform="matrix(0.965926 0.258819 0.258819 -0.965926 70.4094 401.453)" stroke="#4BC3EF" stroke-width="14" stroke-linecap="round"/>
<line x1="54.5624" y1="484.005" x2="323.896" y2="328.505" stroke="#1BADDE" stroke-width="14" stroke-linecap="round"/>
<line x1="7" y1="-7" x2="120.279" y2="-7" transform="matrix(0.707107 -0.707107 -0.707107 -0.707107 234 552)" stroke="#92CDE4" stroke-width="14" stroke-linecap="round"/>
<line x1="418.1" y1="552" x2="338" y2="471.9" stroke="#92CDE4" stroke-width="14" stroke-linecap="round"/>
<line x1="7" y1="-7" x2="73" y2="-7" transform="matrix(0.707107 -0.707107 -0.707107 -0.707107 267 588)" stroke="#4BC3EF" stroke-width="14" stroke-linecap="round"/>
<line x1="384.669" y1="588" x2="338" y2="541.331" stroke="#4BC3EF" stroke-width="14" stroke-linecap="round"/>
<line x1="7" y1="-7" x2="318" y2="-7" transform="matrix(-5.56119e-08 -1 -1 5.56119e-08 324 650)" stroke="#1BADDE" stroke-width="14" stroke-linecap="round"/>
<path d="M330 244L360 267.038L394.952 281.5L390 319L394.952 356.5L360 370.962L330 394L300 370.962L265.048 356.5L270 319L265.048 281.5L300 267.038L330 244Z" fill="#D7E9FC"/>
<path fill-rule="evenodd" clip-rule="evenodd" d="M330 244L300 267.038L265.048 281.5L270 319L265.048 356.5L300 370.962L330 394V244Z" fill="#C0DBF2"/>
</svg>
