<svg width="100" height="100" viewBox="0 0 100 100" fill="none" xmlns="http://www.w3.org/2000/svg">
<path d="M99.5 0.5L99.5 99.5L0.499996 99.5L0.5 0.499996L99.5 0.5Z" fill="url(#paint0_linear_45_178)" stroke="black"/>
<path fill-rule="evenodd" clip-rule="evenodd" d="M0.999878 9.49996C1 7 3.0827 9.09745 4.05336 10.7691C11.8912 24.267 19.884 32.667 27.8312 38.4036C35.8039 44.1587 43.8937 47.3568 52.2148 50.2821C53.4374 50.7119 54.6647 51.1353 55.8953 51.56C71.47 56.934 84.6977 59.4653 99.0267 80.5265C99.0267 81.9999 99.0267 84.0265 99.0267 86.0265C99.0267 88.0266 99.0267 88.9999 99.0267 91.0265C86.0299 71.9234 68.9839 63.4967 53.5206 58.1475C52.3194 57.732 51.1103 57.3137 49.8932 56.8859C41.4236 53.9084 32.5515 50.4441 23.7342 44.0794C14.8912 37.6962 9.26566 28.7347 0.999904 14.4999C0.999996 12.9999 0.999934 11 0.999878 9.49996Z" fill="#FFB800"/>
<defs>
<linearGradient id="paint0_linear_45_178" x1="100" y1="50" x2="100.004" y2="100" gradientUnits="userSpaceOnUse">
<stop stop-color="#095228"/>
<stop offset="1" stop-color="#36714F"/>
</linearGradient>
</defs>
</svg>
