<svg width="100" height="100" viewBox="0 0 100 100" fill="none" xmlns="http://www.w3.org/2000/svg">
<rect x="99.5" y="0.5" width="99" height="99" transform="rotate(90 99.5 0.5)" fill="url(#paint0_linear_45_177)" stroke="black"/>
<circle cx="50" cy="50" r="25" fill="#E34E4E"/>
<path fill-rule="evenodd" clip-rule="evenodd" d="M1 90.5267C1.00012 93.0266 3.08282 90.9292 4.05348 89.2575C11.8913 75.7597 19.8841 67.3596 27.8313 61.623C35.8041 55.8679 43.8938 52.6699 52.2149 49.7446C53.4376 49.3147 54.6648 48.8913 55.8955 48.4666C71.4701 43.0926 84.6978 40.5613 99.0268 19.5001C99.0268 18.0267 99.0268 16.0001 99.0268 14.0001C99.0268 12.0001 99.0268 11.0267 99.0268 9.00009C86.03 28.1032 68.984 36.53 53.5208 41.8791C52.3195 42.2946 51.1104 42.7129 49.8933 43.1408C41.4238 46.1182 32.5516 49.5825 23.7343 55.9472C14.8913 62.3304 9.26578 71.2919 1.00003 85.5267C1.00012 87.0267 1.00006 89.0266 1 90.5267Z" fill="#FFB800"/>
<defs>
<linearGradient id="paint0_linear_45_177" x1="150" y1="9.92094e-08" x2="200" y2="-0.0042306" gradientUnits="userSpaceOnUse">
<stop stop-color="#095228"/>
<stop offset="1" stop-color="#36714F"/>
</linearGradient>
</defs>
</svg>
