<svg width="493" height="599" viewBox="0 0 493 599" fill="none" xmlns="http://www.w3.org/2000/svg">
<path d="M66 291C63.9873 293.582 62.6155 297.113 61.0517 300.024C59.7511 302.445 58.3968 304.912 56.9554 307.232C54.3751 311.384 51.9946 315.662 49.5494 319.905C45.9481 326.153 42.7299 332.494 38.768 338.497C34.4959 344.97 30.7085 351.869 26.6103 358.469C21.9351 365.998 15.631 372.816 12.9779 381.636C11.1142 387.832 10.586 394.391 8.84883 400.628C7.30129 406.184 7.80166 413.328 10.9134 418.13C12.3008 420.272 13.637 422.649 15.5667 424.267C17.5727 425.949 19.8361 426.076 22.2846 425.974C24.236 425.892 26.2141 425.475 28.1668 425.302C29.747 425.162 31.3692 425.111 32.9021 424.739C34.1749 424.431 35.5161 425.32 36.8018 425.32C38.612 425.32 40.3724 425.917 42.1761 425.974C44.8001 426.057 48.822 424.686 50.172 421.943C50.789 420.69 50.7773 418.682 50.9585 417.331C51.545 412.959 51.8943 408.563 52.1218 404.15C52.663 393.656 51.8647 383.185 51.4173 372.703C51.1147 365.615 51.2161 358.514 50.893 351.424C50.7653 348.623 50.4965 345.862 50.4319 343.094M50.4319 343.094C50.3877 341.201 50.439 339.304 50.6963 337.389C51.2094 333.572 51.6626 329.695 52.2693 325.896C52.57 324.013 53.014 322.18 53.6784 320.413C53.9465 319.7 54.7586 316.614 55.5135 316.31C56.4735 315.923 55.2772 324.484 55.2186 324.734C53.7815 330.885 52.0374 336.972 50.4319 343.094ZM50.4319 343.094C49.2191 347.719 48.0853 352.363 47.2227 357.071C45.6681 365.555 45.9083 374.152 45.7153 382.762C45.6016 387.833 45.3027 392.725 44.6782 397.548M44.6782 397.548C44.0661 402.275 43.141 406.936 41.7705 411.633M44.6782 397.548C45.3007 402.434 45.8628 407.326 46.1904 412.248C46.3179 414.162 46.764 415.915 45.535 417.277C44.3813 418.555 42.068 418.445 40.6359 418.021C40.3255 417.93 39.9805 417.755 39.6362 417.52M44.6782 397.548C43.6281 389.306 42.4062 381.085 41.8484 372.776C41.3792 365.787 41.2527 360.988 42.4055 354.438C42.764 352.401 43.5605 350.488 44.044 348.483L44.062 348.408C44.5352 346.446 45.0271 344.407 45.0271 342.364C45.0271 341.681 45.1046 340.336 44.2898 341.238C42.5233 343.196 41.5258 346.232 40.4393 348.628C36.1396 358.109 32.1405 367.399 26.004 375.626C22.3806 380.485 18.8509 385.707 19.0076 392.421C19.1578 398.858 21.0673 404.901 26.5939 407.89C27.0265 408.124 27.4016 408.262 27.7327 408.304M41.7705 411.633C41.642 412.074 41.5096 412.515 41.3732 412.956C40.964 414.279 40.5426 415.629 39.967 416.86M41.7705 411.633C44.0201 411.581 46.3782 412.408 45.9774 414.935C45.7231 416.538 44.1216 416.952 42.9953 416.442C42.8345 416.369 42.6526 415.853 42.6185 416.042C42.4445 417.006 41.1593 417.043 39.967 416.86M41.7705 411.633C40.4532 411.664 39.173 411.996 38.5058 412.466C36.8932 413.6 37.4614 415.31 38.546 416.548M39.967 416.86C39.8621 417.084 39.7522 417.304 39.6362 417.52M39.967 416.86C39.4407 416.779 38.9325 416.654 38.546 416.548M39.6362 417.52C38.9612 418.774 38.0838 419.864 36.8346 420.618C34.7666 421.865 33.2361 420.886 31.3292 419.91C31.0729 419.778 30.8192 419.641 30.5681 419.499M39.6362 417.52C39.2562 417.26 38.877 416.926 38.546 416.548M30.5681 419.499C24.1429 415.848 19.468 408.531 17.9098 400.827C17.7056 399.818 17.3321 395.602 15.5012 397.087C13.4284 398.769 12.4095 402.186 12.4535 404.913C12.5232 409.222 13.2686 414.276 16.5826 417.077C17.5689 417.911 21.3507 419.164 23.3733 418.357M30.5681 419.499C28.2062 419.885 25.6197 419.4 23.6609 418.53C23.6162 418.51 23.5161 418.45 23.3733 418.357M30.5681 419.499C32.3494 419.208 34.0029 418.421 35.1633 416.932C36.0644 415.775 35.3656 416.088 35.3927 415.189C35.3944 415.132 35.4935 415.218 35.5401 415.243C36.5988 415.811 36.6489 415.968 37.9979 416.387C38.1196 416.425 38.3101 416.483 38.546 416.548M23.3733 418.357C24.2723 417.999 24.8237 417.233 24.6277 415.843C24.3154 413.628 21.1675 412.439 19.4827 412.484C15.4272 412.592 21.8456 417.364 23.3733 418.357ZM27.7327 408.304C28.1847 408.361 28.5547 408.24 28.8775 407.942M27.7327 408.304C27.304 407.289 26.8764 405.668 26.5775 404.858C24.7043 399.781 23.6182 394.364 24.7096 388.899C24.9864 387.512 26.0142 384.922 27.6261 384.795C28.0392 384.763 28.4266 385.034 28.7859 385.507M27.7327 408.304C28.0661 409.093 28.4001 409.516 28.6748 408.907C28.7951 408.64 28.858 408.313 28.8775 407.942M28.8775 407.942C29.1807 407.663 29.4422 407.227 29.6907 406.637C30.1735 405.491 30.2765 405.048 30.4444 403.678C30.8973 399.98 31.0515 396.206 31.1877 392.461M28.8775 407.942C28.9861 405.88 27.7452 402.503 27.5606 401.063C26.9258 396.112 26.8345 390.21 28.7859 385.507M31.1877 392.461C31.2235 391.477 31.258 390.495 31.2964 389.516C31.3974 386.942 31.3516 384.321 31.427 381.721M31.1877 392.461C31.4292 393.571 31.5989 394.478 31.6896 394.89C31.9396 396.026 32.1209 397.179 32.2742 398.339M31.1877 392.461C30.6813 390.136 29.8589 386.92 28.7859 385.507M31.427 381.721C31.4606 380.561 31.5184 379.405 31.6241 378.259C31.7804 376.565 32.2727 369.542 34.4423 369.163C36.5916 368.787 36.7487 376.618 36.7362 377.188C36.5745 384.596 33.7186 391.261 32.2742 398.339M31.427 381.721C30.5879 382.515 29.8155 383.379 29.2974 384.396C29.1131 384.758 28.9429 385.128 28.7859 385.507M31.427 381.721C32.2293 380.962 33.0926 380.268 33.8525 379.566M32.2742 398.339C32.1001 399.192 31.9466 400.051 31.8207 400.918C31.3575 404.109 31.8182 407.442 32.5417 410.541C33.3486 413.997 34.8287 413.367 36.2699 410.952M32.2742 398.339C32.6916 401.5 32.9006 404.713 33.7214 407.763C34.3209 409.991 35.2309 410.914 36.2699 410.952M36.2699 410.952C36.4482 410.653 36.626 410.327 36.8018 409.978C39.2808 405.056 39.6426 399.743 40.9636 394.436C42.2161 389.405 43.924 395.172 44.2078 397.251C44.7401 401.147 39.7726 411.08 36.2699 410.952ZM94 254C73.9951 273.63 57.2972 297.255 41.8328 321.332C28.6821 341.807 14.9372 363.304 6.9493 387.024C3.47206 397.349 5.00302 408.622 8.7409 418.668C12.1506 427.832 18.1158 430.62 26.3934 431.619C39.6309 433.215 52.4644 429.367 65.5452 428.044M427 291C429.013 293.582 430.385 297.113 431.948 300.024C433.249 302.445 434.603 304.912 436.045 307.232C438.625 311.384 441.005 315.662 443.451 319.905C447.052 326.153 450.27 332.494 454.232 338.497C458.504 344.97 462.291 351.869 466.39 358.469C471.065 365.998 477.369 372.816 480.022 381.636C481.886 387.832 482.414 394.391 484.151 400.628C485.699 406.184 485.198 413.328 482.087 418.13C480.699 420.272 479.363 422.649 477.433 424.267C475.427 425.949 473.164 426.076 470.715 425.974C468.764 425.892 466.786 425.475 464.833 425.302C463.253 425.162 461.631 425.111 460.098 424.739C458.825 424.431 457.484 425.32 456.198 425.32C454.388 425.32 452.628 425.917 450.824 425.974C448.2 426.057 444.178 424.686 442.828 421.943C442.211 420.69 442.223 418.682 442.042 417.331C441.455 412.959 441.106 408.563 440.878 404.15C440.337 393.656 441.135 383.185 441.583 372.703C441.885 365.615 441.784 358.514 442.107 351.424C442.235 348.623 442.503 345.862 442.568 343.094M442.568 343.094C442.612 341.201 442.561 339.304 442.304 337.389C441.791 333.572 441.337 329.695 440.731 325.896C440.43 324.013 439.986 322.18 439.322 320.413C439.053 319.7 438.241 316.614 437.486 316.31C436.527 315.923 437.723 324.484 437.781 324.734C439.218 330.885 440.963 336.972 442.568 343.094ZM442.568 343.094C443.781 347.719 444.915 352.363 445.777 357.071C447.332 365.555 447.092 374.152 447.285 382.762C447.398 387.833 447.697 392.725 448.322 397.548M448.322 397.548C448.934 402.275 449.859 406.936 451.229 411.633M448.322 397.548C447.699 402.434 447.137 407.326 446.81 412.248C446.682 414.162 446.236 415.915 447.465 417.277C448.619 418.555 450.932 418.445 452.364 418.021C452.674 417.93 453.019 417.755 453.364 417.52M448.322 397.548C449.372 389.306 450.594 381.085 451.152 372.776C451.621 365.787 451.747 360.988 450.595 354.438C450.236 352.401 449.44 350.488 448.956 348.483L448.938 348.408C448.465 346.446 447.973 344.407 447.973 342.364C447.973 341.681 447.895 340.336 448.71 341.238C450.477 343.196 451.474 346.232 452.561 348.628C456.86 358.109 460.86 367.399 466.996 375.626C470.619 380.485 474.149 385.707 473.992 392.421C473.842 398.858 471.933 404.901 466.406 407.89C465.973 408.124 465.598 408.262 465.267 408.304M451.229 411.633C451.358 412.074 451.49 412.515 451.627 412.956C452.036 414.279 452.457 415.629 453.033 416.86M451.229 411.633C448.98 411.581 446.622 412.408 447.023 414.935C447.277 416.538 448.878 416.952 450.005 416.442C450.166 416.369 450.347 415.853 450.382 416.042C450.555 417.006 451.841 417.043 453.033 416.86M451.229 411.633C452.547 411.664 453.827 411.996 454.494 412.466C456.107 413.6 455.539 415.31 454.454 416.548M453.033 416.86C453.138 417.084 453.248 417.304 453.364 417.52M453.033 416.86C453.559 416.779 454.067 416.654 454.454 416.548M453.364 417.52C454.039 418.774 454.916 419.864 456.165 420.618C458.233 421.865 459.764 420.886 461.671 419.91C461.927 419.778 462.181 419.641 462.432 419.499M453.364 417.52C453.744 417.26 454.123 416.926 454.454 416.548M462.432 419.499C468.857 415.848 473.532 408.531 475.09 400.827C475.294 399.818 475.668 395.602 477.499 397.087C479.572 398.769 480.591 402.186 480.546 404.913C480.477 409.222 479.731 414.276 476.417 417.077C475.431 417.911 471.649 419.164 469.627 418.357M462.432 419.499C464.794 419.885 467.38 419.4 469.339 418.53C469.384 418.51 469.484 418.45 469.627 418.357M462.432 419.499C460.651 419.208 458.997 418.421 457.837 416.932C456.936 415.775 457.634 416.088 457.607 415.189C457.606 415.132 457.507 415.218 457.46 415.243C456.401 415.811 456.351 415.968 455.002 416.387C454.88 416.425 454.69 416.483 454.454 416.548M469.627 418.357C468.728 417.999 468.176 417.233 468.372 415.843C468.685 413.628 471.832 412.439 473.517 412.484C477.573 412.592 471.154 417.364 469.627 418.357ZM465.267 408.304C464.815 408.361 464.445 408.24 464.122 407.942M465.267 408.304C465.696 407.289 466.124 405.668 466.423 404.858C468.296 399.781 469.382 394.364 468.29 388.899C468.014 387.512 466.986 384.922 465.374 384.795C464.961 384.763 464.573 385.034 464.214 385.507M465.267 408.304C464.934 409.093 464.6 409.516 464.325 408.907C464.205 408.64 464.142 408.313 464.122 407.942M464.122 407.942C463.819 407.663 463.558 407.227 463.309 406.637C462.826 405.491 462.723 405.048 462.556 403.678C462.103 399.98 461.948 396.206 461.812 392.461M464.122 407.942C464.014 405.88 465.255 402.503 465.439 401.063C466.074 396.112 466.166 390.21 464.214 385.507M461.812 392.461C461.777 391.477 461.742 390.495 461.704 389.516C461.603 386.942 461.648 384.321 461.573 381.721M461.812 392.461C461.571 393.571 461.401 394.478 461.31 394.89C461.06 396.026 460.879 397.179 460.726 398.339M461.812 392.461C462.319 390.136 463.141 386.92 464.214 385.507M461.573 381.721C461.539 380.561 461.482 379.405 461.376 378.259C461.22 376.565 460.727 369.542 458.558 369.163C456.408 368.787 456.251 376.618 456.264 377.188C456.426 384.596 459.281 391.261 460.726 398.339M461.573 381.721C462.412 382.515 463.185 383.379 463.703 384.396C463.887 384.758 464.057 385.128 464.214 385.507M461.573 381.721C460.771 380.962 459.907 380.268 459.148 379.566M460.726 398.339C460.9 399.192 461.053 400.051 461.179 400.918C461.643 404.109 461.182 407.442 460.458 410.541C459.651 413.997 458.171 413.367 456.73 410.952M460.726 398.339C460.308 401.5 460.099 404.713 459.279 407.763C458.679 409.991 457.769 410.914 456.73 410.952M456.73 410.952C456.552 410.653 456.374 410.327 456.198 409.978C453.719 405.056 453.357 399.743 452.036 394.436C450.784 389.405 449.076 395.172 448.792 397.251C448.26 401.147 453.227 411.08 456.73 410.952ZM399 254C419.005 273.63 435.703 297.255 451.167 321.332C464.318 341.807 478.063 363.304 486.051 387.024C489.528 397.349 487.997 408.622 484.259 418.668C480.849 427.832 474.884 430.62 466.607 431.619C453.369 433.215 440.536 429.367 427.455 428.044" stroke="#E34E4E" stroke-width="10" stroke-linecap="round"/>
<rect x="52" y="194" width="392" height="385" rx="160" fill="#E34E4E"/>
<path d="M247 5.06466C278.229 4.24078 309.013 11.4349 339.373 18.3726C365.512 24.3455 391.817 29.5983 416.299 40.9961M417.925 42.738C418.313 42.9424 417.09 42.9809 416.667 43.0786C411.06 44.3729 405.408 46.6924 400.015 48.5954C379.211 55.9363 358.746 64.0658 338.928 74M399.352 39.1274C398.412 38.9523 398.422 39.6459 398.714 40.4184M398.714 40.4184C398.988 41.1434 399.51 41.938 399.729 42.1494C400.796 43.1793 404.782 44.1964 403.104 41.4934C402.196 40.0317 400.282 40.2624 398.714 40.4184ZM398.714 40.4184C398.423 40.4473 398.145 40.4736 397.887 40.4861C397.051 40.5266 396.233 40.5416 395.426 40.5341M395.426 40.5341C391.435 40.4973 387.731 39.9127 383.635 39.1742C376.213 37.8362 368.54 38.5548 361.28 36.4099C360.206 36.0923 359.148 35.7144 358.102 35.2995M395.426 40.5341C395.351 40.3418 395.181 40.1389 394.89 39.9239C391.835 37.6671 387.544 35.9797 384.079 34.4889C379.752 32.6272 375.343 30.9421 370.826 29.6631C362.28 27.2433 353.202 26.1328 344.257 25.3011M395.426 40.5341C395.86 41.6497 393.085 42.4093 392.071 43.1099C386.791 46.758 381.208 49.7543 375.532 52.6679C370.945 55.0227 365.26 58.4922 359.926 57.4C357.839 56.9727 356.106 55.9571 354.613 54.5914M358.102 35.2995C357.4 35.021 356.703 34.7258 356.008 34.421M358.102 35.2995C361.431 36.9087 363.394 39.11 361.569 42.0791C360.978 43.0412 360.241 43.9557 359.403 44.8227M358.102 35.2995C357.451 34.9844 356.747 34.692 356.008 34.421M356.008 34.421C353.535 33.3354 351.098 32.1275 348.605 31.1155C343.954 29.2279 338.507 29.701 334.064 27.297C333.725 27.1135 333.297 26.903 332.857 26.6657M356.008 34.421C350.655 32.4557 343.506 31.6151 341.501 31.3966C334.608 30.6453 328.45 32.0872 326.384 39.9941C325.105 44.8861 326.589 47.6844 331.394 48.7166M332.857 26.6657C332.06 26.2365 331.223 25.7199 330.801 25.1183C330.747 25.0409 330.706 24.9692 330.677 24.9029M332.857 26.6657C332.481 26.7653 332.106 26.8739 331.734 26.9924C327.107 28.4633 317.526 33.3585 317.526 39.549C317.526 42.6976 320.799 45.0219 323.098 46.3896C325.641 47.9021 328.435 49.2452 331.315 50.3153M332.857 26.6657C335.414 25.9889 338.044 25.7334 340.68 25.6571C341.057 25.6462 345.033 25.6759 344.365 25.3526C344.329 25.3352 344.293 25.3181 344.257 25.3011M330.677 24.9029C330.293 24.023 332.065 24.0836 333.911 24.2911M330.677 24.9029C331.742 24.6646 332.825 24.4519 333.911 24.2911M330.677 24.9029C329.082 25.2593 327.526 25.673 326.051 26.0554C320.069 27.6058 309.848 35.0274 310.755 42.6882C311.542 49.3309 317.9 52.6202 323.32 54.05C328.424 55.3966 333.387 56.1634 338.288 55.5989M333.911 24.2911C335.005 24.414 336.125 24.5885 336.839 24.6498C339.292 24.8601 341.77 25.0698 344.257 25.3011M333.911 24.2911C337.465 23.7651 341.063 23.7942 344.257 25.3011M354.613 54.5914C353.836 53.8804 353.124 53.0746 352.462 52.2075M354.613 54.5914C351.987 55.4592 349.127 55.7533 346.39 55.3867M354.613 54.5914C355.758 54.2131 356.858 53.7257 357.884 53.1364C359.029 52.4787 359.692 51.7342 360.075 50.8693M352.462 52.2075C352.359 52.072 352.256 51.935 352.155 51.7966M352.462 52.2075C354.923 51.827 357.383 51.3466 359.86 50.9109C359.888 50.906 359.961 50.8919 360.075 50.8693M352.462 52.2075C352.22 52.245 351.978 52.2815 351.735 52.3169M352.155 51.7966C351.919 51.4732 351.689 51.1423 351.464 50.8056M352.155 51.7966C352.148 51.8059 352.141 51.8152 352.134 51.8245C352.007 51.9947 351.874 52.1588 351.735 52.3169M352.155 51.7966C352.72 51.0378 353.145 50.2609 353.442 49.479M351.464 50.8056C351.441 50.7702 351.417 50.7347 351.394 50.6991M351.464 50.8056C350.964 51.1482 350.483 51.4362 350.092 51.6605C349.467 52.0192 348.741 52.4008 347.954 52.7594M351.464 50.8056C351.764 50.6005 352.07 50.3759 352.368 50.1337M351.394 50.6991C350.659 49.5876 349.982 48.4148 349.337 47.239M351.394 50.6991C350.026 51.4763 348.675 52.1767 347.428 52.8M351.394 50.6991C351.718 50.515 352.043 50.3265 352.368 50.1337M349.337 47.239C348.53 45.7667 347.771 44.2897 347.006 42.9224C346.406 41.8477 345.494 40.5946 345.104 39.7546M349.337 47.239C348.844 47.8114 348.116 48.2788 347.117 48.5682C343.887 49.505 339.763 49.6843 335.997 49.3748M349.337 47.239C351.402 44.8453 349.362 40.6145 345.808 39.877C345.572 39.828 345.337 39.7873 345.104 39.7546M345.104 39.7546C344.91 39.3354 344.845 39.019 345.013 38.8792M345.104 39.7546C339.016 38.8998 334.17 43.539 335.997 49.3748M345.013 38.8792C345.246 38.6862 345.923 38.8294 347.317 39.5022C349.006 40.3173 350.753 41.1957 352.544 42.0379M345.013 38.8792C346.72 39.2392 348.402 40.0302 350.07 41.1889C351.021 41.8499 352.587 42.92 353.595 44.2214M345.013 38.8792C342.498 38.3485 339.932 38.7542 337.283 40.2987C335.684 41.2315 334.023 42.9557 332.858 44.918M352.544 42.0379C354.772 43.0859 357.067 44.0779 359.403 44.8227M352.544 42.0379C352.999 42.7295 353.353 43.4621 353.595 44.2214M352.544 42.0379C351.692 40.7438 350.488 39.5936 349.004 38.6823C345.87 36.7573 337.53 33.4375 334.042 36.0819C331.834 37.7563 331.796 41.5231 332.51 43.9064C332.614 44.2504 332.73 44.5876 332.858 44.918M359.403 44.8227C361.731 45.5651 364.099 46.0618 366.479 46.1234M359.403 44.8227C357.714 46.5682 355.611 48.1206 353.442 49.479M366.479 46.1234C367.327 46.1454 368.178 46.112 369.028 46.0147C378.195 44.9663 366.552 43.1302 366.142 45.4525C366.092 45.738 366.219 45.9573 366.479 46.1234ZM366.479 46.1234C368.223 47.2382 375.947 45.9525 376.043 46.1553C376.667 47.4731 362.085 50.4732 360.075 50.8693M360.075 50.8693C360.539 49.822 360.592 48.5984 360.592 47.1392M351.735 52.3169C350.476 52.5008 349.216 52.6547 347.954 52.7594M351.735 52.3169C350.371 53.8721 348.48 54.8501 346.39 55.3867M347.954 52.7594C347.779 52.7739 347.603 52.7875 347.428 52.8M347.954 52.7594C347.182 53.1107 346.352 53.4399 345.5 53.7037M347.428 52.8C344.822 52.9868 342.203 52.9526 339.548 52.5273C339.39 52.5021 339.233 52.4759 339.075 52.4485M347.428 52.8C347.263 52.8823 347.101 52.9631 346.94 53.0427C346.46 53.2801 345.98 53.5002 345.5 53.7037M339.075 52.4485C338.492 52.3472 337.905 52.2311 337.318 52.101M339.075 52.4485C338.067 51.7455 337.109 50.9492 336.241 50.0616M339.075 52.4485C339.676 52.8672 340.295 53.2528 340.924 53.6049C341.385 53.8629 341.859 54.0941 342.345 54.299M337.318 52.101C335.312 51.6571 333.293 51.0506 331.315 50.3153M337.318 52.101C337.245 51.9975 337.174 51.8897 337.106 51.7777C336.752 51.1988 336.465 50.6255 336.241 50.0616M337.318 52.101C338.541 53.8376 340.375 54.3887 342.345 54.299M331.315 50.3153C331.275 49.7968 331.304 49.2605 331.394 48.7166M331.315 50.3153C331.464 52.2425 332.579 53.9231 335.197 54.8231C336.134 55.1454 337.181 55.4109 338.288 55.5989M338.288 55.5989C339.893 55.414 341.492 55.0862 343.088 54.589M338.288 55.5989C340.874 56.0385 343.786 56.0552 346.39 55.3867M343.088 54.589C343.893 54.3382 344.697 54.0442 345.5 53.7037M343.088 54.589C342.837 54.499 342.59 54.4023 342.345 54.299M343.088 54.589C344.151 54.9716 345.26 55.2354 346.39 55.3867M345.5 53.7037C344.457 54.0268 343.382 54.2518 342.345 54.299M352.368 50.1337C352.727 49.9207 353.085 49.7025 353.442 49.479M352.368 50.1337C352.835 49.7538 353.281 49.3305 353.647 48.8714M353.442 49.479C353.519 49.2767 353.587 49.0741 353.647 48.8714M331.394 48.7166C331.418 48.7219 331.443 48.7271 331.467 48.7322C332.725 48.9959 334.118 49.203 335.572 49.3376M331.394 48.7166C331.602 47.4469 332.135 46.1365 332.858 44.918M335.572 49.3376C335.713 49.3507 335.855 49.3631 335.997 49.3748M335.572 49.3376C334.437 48.0377 333.497 46.5627 332.858 44.918M335.572 49.3376C335.788 49.5853 336.011 49.8267 336.241 50.0616M335.997 49.3748C336.068 49.602 336.149 49.831 336.241 50.0616M353.647 48.8714C354.168 48.2186 354.527 47.4934 354.554 46.7175C354.585 45.8297 354.186 44.9857 353.595 44.2214M353.647 48.8714C354.113 47.2918 354.068 45.7057 353.595 44.2214" stroke="#E34E4E" stroke-width="10" stroke-linecap="round"/>
<circle cx="425" cy="43" r="19" fill="white"/>
<ellipse cx="246.5" cy="90" rx="125.5" ry="90" fill="#E34E4E"/>
<rect x="132" y="116" width="237" height="250" fill="#FFCEBF"/>
<ellipse cx="248" cy="287" rx="160" ry="137" fill="white"/>
<ellipse cx="250.5" cy="189" rx="118.5" ry="54" fill="#FFCEBF"/>
<g style="mix-blend-mode:color-burn">
<line x1="142" y1="135" x2="142" y2="218" stroke="#FFD1C5" stroke-width="20"/>
</g>
<ellipse cx="248" cy="243" rx="28" ry="25" fill="#FFA78F"/>
<path d="M125 119H369" stroke="white" stroke-width="40" stroke-linecap="round"/>
<path d="M205 171L205 194M286 171V194" stroke="#1E1E1E" stroke-width="20" stroke-linecap="round"/>
<path d="M186.146 537.802C184.468 534.783 181.108 534.87 177.653 535.1C169.233 535.661 160.939 538.326 153.854 542.322C147.611 545.843 142.452 551.309 137.198 555.857C132.039 560.322 126.129 565.858 123.813 571.989C123.192 573.633 122.714 575.522 122.6 577.421M122.6 577.421C122.47 579.583 122.813 581.758 123.956 583.595M122.6 577.421C123.258 575.156 124.737 572.933 126.154 571.573C133.455 564.57 142.195 558.655 150.613 552.713C156.764 548.372 163.025 543.152 170.841 541.335C178.683 539.512 185.112 537.923 191.728 542.478C194.697 544.522 196.672 547.154 198.211 550.115C199.638 552.86 201.907 555.219 203.613 557.857C207.39 563.7 209.418 573.342 205.354 579.523C200.507 586.893 190.206 590.503 181.014 592.018C168.653 594.057 155.715 593.401 143.32 591.785C137.651 591.045 128.377 588.765 124.773 584.693C124.465 584.343 124.193 583.977 123.956 583.595M122.6 577.421C122.105 579.124 122.074 580.851 122.883 582.251C123.168 582.744 123.531 583.191 123.956 583.595M123.956 583.595C127.114 586.601 133.729 587.311 137.768 587.992C144.353 589.102 151.506 589.121 157.966 587.498C158.742 587.303 159.539 587.106 160.353 586.905M160.353 586.905C161.535 586.614 162.753 586.314 163.994 586.001M160.353 586.905C161.157 586.904 161.963 586.901 162.768 586.901C163.716 586.901 164.667 586.9 165.619 586.892M160.353 586.905C155.114 586.914 149.929 586.852 145.257 585.393M163.994 586.001C167.401 585.142 170.978 584.184 174.446 583.019M163.994 586.001C164.519 586.405 165.063 586.696 165.619 586.892M163.994 586.001C163.935 585.956 163.876 585.91 163.818 585.862C163.219 585.368 162.625 584.813 162.055 584.21M174.446 583.019C175.329 582.723 176.204 582.413 177.068 582.088M174.446 583.019C171.873 583.183 169.304 583.367 166.759 583.653C165.238 583.825 163.664 584.017 162.055 584.21M174.446 583.019C175.178 582.973 175.91 582.928 176.642 582.882M177.068 582.088C177.421 581.956 177.771 581.821 178.12 581.683M177.068 582.088C175.756 581.129 174.987 579.669 174.676 578.122M177.068 582.088C177.168 582.162 177.272 582.233 177.379 582.3M178.12 581.683C182.455 579.969 186.442 577.847 189.476 575.086M178.12 581.683C182.778 577.68 186.2 572.387 187.799 566.894M178.12 581.683C177.876 581.892 177.629 582.098 177.379 582.3M189.476 575.086C189.83 574.764 190.171 574.433 190.498 574.093C195.254 569.153 196.655 564.563 192.569 559.104C190.529 556.379 187.478 553.045 183.894 550.647M189.476 575.086C189.641 574.8 189.819 574.506 189.988 574.223C191.156 572.268 190.813 567.685 187.799 566.894M189.476 575.086C188.677 576.468 188.178 577.632 190.468 576.146M183.894 550.647C183.829 550.603 183.763 550.559 183.697 550.516M183.894 550.647C183.856 550.458 183.816 550.269 183.777 550.08M183.894 550.647C184.559 553.886 185.069 557.091 184.826 560.403C184.783 560.989 184.765 561.68 184.737 562.421M183.697 550.516C181.919 549.35 180.013 548.418 178.037 547.907M183.697 550.516C183.463 551.671 183.064 552.759 182.785 553.389C181.812 555.585 180.412 557.489 178.546 559.013M183.697 550.516C183.726 550.371 183.753 550.226 183.777 550.08M178.037 547.907C176.763 547.577 175.459 547.422 174.142 547.492C166.803 547.881 160.968 552.807 156.778 558.36M178.037 547.907C179.859 547.224 181.578 547.305 183.166 547.868M178.037 547.907C177.372 548.156 176.693 548.506 176.003 548.972C174.004 550.321 170.546 555.948 170.129 559.364M156.778 558.36C154.621 561.217 152.9 564.241 151.633 566.897C151.576 567.018 151.522 567.138 151.47 567.257M156.778 558.36C161.265 558.034 165.935 558.436 170.129 559.364M156.778 558.36C153.312 558.612 149.956 559.297 147.012 560.507C142.118 562.518 139.264 567.336 138.174 571.82M151.47 567.257C150.565 569.352 150.529 571.342 151.575 572.812M151.47 567.257C152.797 567.302 154.146 567.446 155.457 567.691M151.47 567.257C149.491 567.191 147.559 567.348 145.871 567.729C142.822 568.416 140.28 569.923 138.174 571.82M151.575 572.812C152.446 574.035 154.065 574.897 156.555 575.158C156.888 575.193 157.222 575.218 157.559 575.233M151.575 572.812C151.821 572.012 152.216 571.216 152.774 570.43C153.349 569.621 154.278 568.677 155.457 567.691M151.575 572.812C150.881 575.071 151.382 577.351 152.789 579.45M157.559 575.233C159.062 575.301 160.598 575.175 162.112 574.885M157.559 575.233C157.627 576.233 157.862 577.242 158.225 578.231M157.559 575.233C157.458 573.758 157.721 572.301 158.476 570.95C158.902 570.187 159.452 569.576 160.092 569.086M162.112 574.885C162.533 574.805 162.952 574.712 163.369 574.607M162.112 574.885C161.495 575.706 160.791 576.439 160.337 576.925C159.976 577.311 159.593 577.674 159.191 578.013M162.112 574.885C163.241 573.384 164.078 571.59 162.558 570.482C161.829 569.952 160.997 569.486 160.092 569.086M163.369 574.607C167.368 573.6 171.112 571.492 173.602 568.872C174.039 568.411 174.47 567.932 174.866 567.445M163.369 574.607C163.846 572.238 164.862 569.654 166.257 567.254M163.369 574.607C163.199 575.451 163.098 576.269 163.072 577.041M174.866 567.445C176.726 565.158 177.821 562.689 175.277 561.06M174.866 567.445C172.708 567.495 170.574 567.297 169.7 567.261C168.6 567.216 167.426 567.192 166.257 567.254M174.866 567.445C178.278 567.366 181.749 566.668 180.384 563.728C179.566 561.965 178.28 560.876 176.698 560.306M175.277 561.06C174.77 560.736 174.12 560.445 173.302 560.195C173.115 560.138 172.926 560.082 172.736 560.027M175.277 561.06C175.034 561.175 174.786 561.285 174.532 561.39C172.531 562.222 171.316 562.206 170.674 561.648M175.277 561.06C175.772 560.827 176.246 560.575 176.698 560.306M172.736 560.027C172.559 559.976 172.381 559.926 172.201 559.876M172.736 560.027C172.846 559.955 172.955 559.885 173.066 559.817M172.736 560.027C172.025 560.495 171.335 561.041 170.674 561.648M172.201 559.876C171.526 559.691 170.834 559.52 170.129 559.364M172.201 559.876C172.493 559.848 172.781 559.828 173.066 559.817M172.201 559.876C171.514 559.944 170.809 560.059 170.093 560.216M170.129 559.364C170.092 559.667 170.079 559.952 170.093 560.216M138.174 571.82C138.088 572.174 138.013 572.525 137.948 572.872C137.843 573.441 137.822 573.98 137.873 574.491M138.174 571.82C136.67 573.174 135.388 574.726 134.302 576.32M137.873 574.491C137.97 575.449 138.324 576.306 138.869 577.064M137.873 574.491C140.149 573.42 142.284 572.658 140.95 574.327C140.447 574.956 139.585 575.962 138.869 577.064M137.873 574.491C136.481 575.147 135.036 575.918 134.302 576.32M138.869 577.064C140.429 579.234 143.55 580.584 146.657 581.136M138.869 577.064C137.78 578.739 137.03 580.635 138.399 581.757C138.704 582.008 139.014 582.246 139.328 582.473M146.657 581.136C146.755 581.153 146.854 581.17 146.952 581.185C149.334 581.57 151.692 581.426 153.859 580.814M146.657 581.136C144.217 581.769 141.726 582.307 139.328 582.473M146.657 581.136C148.769 580.587 150.844 579.966 152.789 579.45M153.859 580.814C155.501 580.35 157.033 579.618 158.384 578.643M153.859 580.814C153.746 580.693 153.634 580.565 153.524 580.432C153.257 580.11 153.012 579.782 152.789 579.45M153.859 580.814C155.901 583.019 158.327 583.354 160.799 582.748M158.384 578.643C158.661 578.443 158.93 578.233 159.191 578.013M158.384 578.643C158.968 580.09 159.815 581.487 160.799 582.748M158.384 578.643C158.328 578.506 158.275 578.369 158.225 578.231M159.191 578.013C158.87 578.087 158.548 578.16 158.225 578.231M159.191 578.013C160.504 577.711 161.797 577.387 163.072 577.041M160.092 569.086C158.684 568.463 157.1 567.999 155.457 567.691M160.092 569.086C161.742 567.824 163.99 567.376 166.257 567.254M155.457 567.691C159.018 564.715 164.858 561.361 170.093 560.216M134.302 576.32C134.154 576.538 134.008 576.757 133.867 576.977C133.149 578.091 133.419 579.213 132.906 580.354C132.698 580.817 132.565 581.216 132.505 581.562M134.302 576.32C134.094 576.434 133.943 576.518 133.867 576.561C131.539 577.881 129.061 580.088 132.505 581.562M132.505 581.562C132.238 583.109 133.434 583.631 136.028 584.277C138.94 585.002 142.058 585.325 145.257 585.393M132.505 581.562C132.576 581.593 132.65 581.623 132.726 581.653C134.753 582.445 136.997 582.635 139.328 582.473M145.257 585.393C150.826 585.512 156.644 584.858 162.055 584.21M145.257 585.393C143.164 584.74 141.174 583.806 139.328 582.473M162.055 584.21C161.619 583.749 161.198 583.26 160.799 582.748M176.642 582.882C177.226 582.846 177.809 582.81 178.393 582.772M176.642 582.882C176.793 582.764 176.94 582.649 177.083 582.536C177.182 582.458 177.281 582.379 177.379 582.3M176.642 582.882C174.86 584.273 172.511 585.99 170.082 586.78M178.393 582.772C182.065 582.536 185.728 582.252 189.328 581.679C195.502 580.696 201.482 579.249 201.482 572.691C201.482 566.544 194.932 560.957 191.638 555.883C189.847 553.122 187.157 549.629 183.851 548.143M178.393 582.772C178.039 582.655 177.7 582.502 177.383 582.303L177.379 582.3M178.393 582.772C180.11 583.34 182.191 583.064 183.956 583.186C185.347 583.282 181.83 584.859 180.504 585.238C177.116 586.207 173.613 586.611 170.082 586.78M183.851 548.143C183.625 548.042 183.397 547.95 183.166 547.868M183.851 548.143C183.926 548.746 183.884 549.416 183.777 550.08M183.851 548.143C183.77 547.5 183.556 546.934 183.145 546.53C182.665 546.059 182.874 546.897 183.166 547.868M183.166 547.868C183.363 548.52 183.597 549.232 183.685 549.648C183.716 549.792 183.747 549.936 183.777 550.08M170.093 560.216C170.125 560.832 170.306 561.329 170.674 561.648M170.674 561.648C168.983 563.201 167.475 565.158 166.257 567.254M176.698 560.306C177.359 559.912 177.974 559.48 178.546 559.013M176.698 560.306C175.609 559.913 174.379 559.767 173.066 559.817M178.546 559.013C180.681 559.542 182.589 560.907 183.265 562.689C183.359 562.935 183.424 563.183 183.463 563.433M178.546 559.013C176.866 558.597 175.045 558.698 173.572 559.52C173.402 559.614 173.233 559.713 173.066 559.817M184.737 562.421C184.651 564.716 184.475 567.494 183.184 569.116M184.737 562.421C184.63 562.487 184.519 562.559 184.406 562.637C184.065 562.87 183.751 563.138 183.463 563.433M184.737 562.421C188.381 560.161 188.574 564.116 187.887 566.586C187.858 566.688 187.829 566.791 187.799 566.894M183.184 569.116C183.152 569.156 183.119 569.196 183.085 569.235C182.62 569.776 181.859 570.167 181.368 570.046M183.184 569.116C182.579 569.433 181.974 569.743 181.368 570.046M183.184 569.116C183.371 569.018 183.558 568.919 183.745 568.82C184.812 568.253 185.844 566.664 187.227 566.793C187.427 566.812 187.618 566.846 187.799 566.894M181.368 570.046C181.064 569.97 180.863 569.698 180.9 569.142M181.368 570.046C180.403 570.528 179.436 570.993 178.467 571.441M180.9 569.142C180.904 569.073 180.912 569.001 180.924 568.924C181.207 567.107 182.007 564.925 183.463 563.433M180.9 569.142C180.17 569.934 179.338 570.706 178.467 571.441M180.9 569.142C182.616 567.277 183.758 565.299 183.463 563.433M170.082 586.78C168.587 587.266 167.062 587.401 165.619 586.892M170.082 586.78C168.597 586.851 167.107 586.88 165.619 586.892M160.799 582.748C162.269 582.388 163.756 581.695 165.188 580.864M158.225 578.231C157.416 578.41 156.6 578.58 155.775 578.743C154.826 578.931 153.826 579.176 152.789 579.45M165.188 580.864C167.518 579.513 169.705 577.798 171.441 576.561C172.251 575.984 173.47 575.181 174.827 574.222M165.188 580.864C163.894 580.049 163.039 578.713 163.068 577.211C163.069 577.154 163.07 577.098 163.072 577.041M165.188 580.864C166.241 581.527 167.584 581.845 168.98 581.627C171.409 581.247 173.338 579.862 174.676 578.122M174.827 574.222C175.366 573.841 175.927 573.435 176.493 573.009M174.827 574.222C174.874 574.063 174.926 573.907 174.982 573.756C175.14 573.334 175.29 573.015 175.43 572.783M174.827 574.222C174.478 575.412 174.41 576.799 174.676 578.122M176.493 573.009C177.153 572.512 177.821 571.987 178.467 571.441M176.493 573.009C176.6 573.559 176.572 574.321 176.363 574.951C176 576.043 175.432 577.139 174.676 578.122M176.493 573.009C176.444 572.761 176.368 572.555 176.268 572.425M178.467 571.441C177.736 571.779 177.003 572.107 176.268 572.425M163.072 577.041C167.344 575.882 171.425 574.474 175.43 572.783M176.268 572.425C176.07 572.168 175.78 572.205 175.43 572.783M176.268 572.425C175.989 572.546 175.71 572.665 175.43 572.783M130.506 586.433C130.751 590.254 139.807 591.481 142.99 592.2C151.691 594.167 161.402 594.33 170.33 593.603C178.148 592.967 185.81 590.361 193.349 588.511C199.296 587.052 203.645 584.699 207.364 580.406C212.977 573.928 211.54 564.405 206.794 557.649C201.356 549.908 195.632 544.903 185.606 542.01M121.322 571.937C123.298 562.438 134.143 554.36 142.57 548.998C149.035 544.884 156.016 542.088 163.458 539.672M180.665 535.871C180.788 536.156 181.426 536.121 181.687 536.166C183.129 536.413 184.512 536.827 185.854 537.346C187.982 538.169 190.045 539.185 192.117 540.113C195.126 541.462 197.053 543.947 198.577 546.454C200.289 549.27 202.711 551.529 203.831 554.654C204.486 556.481 205.34 558.14 204.434 560.076C202.946 563.256 199.375 565.332 196.205 567.131C188.932 571.26 180.956 575.118 172.278 576.375C168.593 576.909 164.804 577.021 161.075 577.09C159.015 577.128 156.924 577.213 154.929 576.693C153.705 576.374 152.863 575.734 152.021 574.935C151.702 574.633 151.025 573.76 150.422 574.164C149.273 574.932 148.879 576.724 148.273 577.793C147.007 580.025 145.518 577.356 144.211 576.375C142.955 575.433 141.938 574.738 140.109 575.196C138.084 575.703 136.303 576.835 134.37 577.544C132.685 578.162 130.751 578.184 129.116 578.837C126.119 580.034 128.633 581.301 128.952 582.992M128.952 582.992C128.973 583.102 128.985 583.214 128.985 583.328C128.985 583.548 128.451 583.358 127.778 583.005M128.952 582.992C128.561 583.004 128.169 583.012 127.778 583.005M128.952 582.992C130.307 582.947 131.662 582.838 133.021 583.034M127.778 583.005C126.73 582.455 125.346 581.509 125.119 581.094C124.403 579.786 123.789 578.448 123.822 576.977C123.85 575.743 124.136 574.589 124.53 573.415C125.262 571.231 124.158 573.34 123.73 574.254C123.084 575.637 123.035 576.958 123.35 578.406C123.493 579.06 123.614 579.73 123.835 580.368C123.935 580.656 124.513 581.479 124.425 581.786C124.329 582.118 123.834 581.327 123.586 581.06C122.917 580.339 122.421 579.445 122.04 578.587C121.112 576.503 121.12 574.355 121.791 572.224C122.134 571.135 121.402 573.168 121.358 573.347C120.907 575.194 120.746 577.135 121.699 578.86C122.572 580.439 123.226 582.151 125.421 582.716C126.207 582.918 126.993 582.991 127.778 583.005ZM181.734 535.439C184.8 535.439 187.448 536.758 190.041 538.301C191.402 539.111 192.681 539.907 193.629 541.199C194.533 542.429 195.204 543.804 195.944 545.128" stroke="#544B4B" stroke-width="10" stroke-linecap="round"/>
<path d="M333.854 537.802C335.532 534.783 338.892 534.87 342.347 535.1C350.767 535.661 359.061 538.326 366.146 542.322C372.389 545.843 377.548 551.309 382.802 555.857C387.961 560.322 393.871 565.858 396.187 571.989C396.808 573.633 397.286 575.522 397.4 577.421M397.4 577.421C397.53 579.583 397.187 581.758 396.044 583.595M397.4 577.421C396.742 575.156 395.263 572.933 393.846 571.573C386.545 564.57 377.805 558.655 369.387 552.713C363.236 548.372 356.975 543.152 349.159 541.335C341.317 539.512 334.888 537.923 328.272 542.478C325.303 544.522 323.328 547.154 321.789 550.115C320.362 552.86 318.093 555.219 316.387 557.857C312.61 563.7 310.582 573.342 314.646 579.523C319.493 586.893 329.794 590.503 338.986 592.018C351.347 594.057 364.285 593.401 376.68 591.785C382.349 591.045 391.623 588.765 395.227 584.693C395.535 584.343 395.807 583.977 396.044 583.595M397.4 577.421C397.895 579.124 397.926 580.851 397.117 582.251C396.832 582.744 396.469 583.191 396.044 583.595M396.044 583.595C392.886 586.601 386.271 587.311 382.232 587.992C375.647 589.102 368.494 589.121 362.034 587.498C361.258 587.303 360.461 587.106 359.647 586.905M359.647 586.905C358.465 586.614 357.247 586.314 356.006 586.001M359.647 586.905C358.843 586.904 358.037 586.901 357.232 586.901C356.284 586.901 355.333 586.9 354.381 586.892M359.647 586.905C364.886 586.914 370.071 586.852 374.743 585.393M356.006 586.001C352.599 585.142 349.022 584.184 345.554 583.019M356.006 586.001C355.481 586.405 354.937 586.696 354.381 586.892M356.006 586.001C356.065 585.956 356.124 585.91 356.182 585.862C356.781 585.368 357.375 584.813 357.945 584.21M345.554 583.019C344.671 582.723 343.796 582.413 342.932 582.088M345.554 583.019C348.127 583.183 350.696 583.367 353.241 583.653C354.762 583.825 356.336 584.017 357.945 584.21M345.554 583.019C344.822 582.973 344.09 582.928 343.358 582.882M342.932 582.088C342.579 581.956 342.229 581.821 341.88 581.683M342.932 582.088C344.244 581.129 345.013 579.669 345.324 578.122M342.932 582.088C342.832 582.162 342.728 582.233 342.621 582.3M341.88 581.683C337.545 579.969 333.558 577.847 330.524 575.086M341.88 581.683C337.222 577.68 333.8 572.387 332.201 566.894M341.88 581.683C342.124 581.892 342.371 582.098 342.621 582.3M330.524 575.086C330.17 574.764 329.829 574.433 329.502 574.093C324.746 569.153 323.345 564.563 327.431 559.104C329.471 556.379 332.522 553.045 336.106 550.647M330.524 575.086C330.359 574.8 330.181 574.506 330.012 574.223C328.844 572.268 329.187 567.685 332.201 566.894M330.524 575.086C331.323 576.468 331.822 577.632 329.532 576.146M336.106 550.647C336.171 550.603 336.237 550.559 336.303 550.516M336.106 550.647C336.144 550.458 336.184 550.269 336.223 550.08M336.106 550.647C335.441 553.886 334.931 557.091 335.174 560.403C335.217 560.989 335.235 561.68 335.263 562.421M336.303 550.516C338.081 549.35 339.987 548.418 341.963 547.907M336.303 550.516C336.537 551.671 336.936 552.759 337.215 553.389C338.188 555.585 339.588 557.489 341.454 559.013M336.303 550.516C336.274 550.371 336.247 550.226 336.223 550.08M341.963 547.907C343.237 547.577 344.541 547.422 345.858 547.492C353.197 547.881 359.032 552.807 363.222 558.36M341.963 547.907C340.141 547.224 338.422 547.305 336.834 547.868M341.963 547.907C342.628 548.156 343.307 548.506 343.997 548.972C345.996 550.321 349.454 555.948 349.871 559.364M363.222 558.36C365.379 561.217 367.1 564.241 368.367 566.897C368.424 567.018 368.478 567.138 368.53 567.257M363.222 558.36C358.735 558.034 354.065 558.436 349.871 559.364M363.222 558.36C366.688 558.612 370.044 559.297 372.988 560.507C377.882 562.518 380.736 567.336 381.826 571.82M368.53 567.257C369.435 569.352 369.471 571.342 368.425 572.812M368.53 567.257C367.203 567.302 365.854 567.446 364.543 567.691M368.53 567.257C370.509 567.191 372.441 567.348 374.129 567.729C377.178 568.416 379.72 569.923 381.826 571.82M368.425 572.812C367.554 574.035 365.935 574.897 363.445 575.158C363.112 575.193 362.778 575.218 362.441 575.233M368.425 572.812C368.179 572.012 367.784 571.216 367.226 570.43C366.651 569.621 365.722 568.677 364.543 567.691M368.425 572.812C369.119 575.071 368.618 577.351 367.211 579.45M362.441 575.233C360.938 575.301 359.402 575.175 357.888 574.885M362.441 575.233C362.373 576.233 362.138 577.242 361.775 578.231M362.441 575.233C362.542 573.758 362.279 572.301 361.524 570.95C361.098 570.187 360.548 569.576 359.908 569.086M357.888 574.885C357.467 574.805 357.048 574.712 356.631 574.607M357.888 574.885C358.505 575.706 359.209 576.439 359.663 576.925C360.024 577.311 360.407 577.674 360.809 578.013M357.888 574.885C356.759 573.384 355.922 571.59 357.442 570.482C358.171 569.952 359.003 569.486 359.908 569.086M356.631 574.607C352.632 573.6 348.888 571.492 346.398 568.872C345.961 568.411 345.53 567.932 345.134 567.445M356.631 574.607C356.154 572.238 355.138 569.654 353.743 567.254M356.631 574.607C356.801 575.451 356.902 576.269 356.928 577.041M345.134 567.445C343.274 565.158 342.179 562.689 344.723 561.06M345.134 567.445C347.292 567.495 349.426 567.297 350.3 567.261C351.4 567.216 352.574 567.192 353.743 567.254M345.134 567.445C341.722 567.366 338.251 566.668 339.616 563.728C340.434 561.965 341.72 560.876 343.302 560.306M344.723 561.06C345.23 560.736 345.88 560.445 346.698 560.195C346.885 560.138 347.074 560.082 347.264 560.027M344.723 561.06C344.966 561.175 345.214 561.285 345.468 561.39C347.469 562.222 348.684 562.206 349.326 561.648M344.723 561.06C344.228 560.827 343.754 560.575 343.302 560.306M347.264 560.027C347.441 559.976 347.619 559.926 347.799 559.876M347.264 560.027C347.154 559.955 347.045 559.885 346.934 559.817M347.264 560.027C347.975 560.495 348.665 561.041 349.326 561.648M347.799 559.876C348.474 559.691 349.166 559.52 349.871 559.364M347.799 559.876C347.507 559.848 347.219 559.828 346.934 559.817M347.799 559.876C348.486 559.944 349.191 560.059 349.907 560.216M349.871 559.364C349.908 559.667 349.921 559.952 349.907 560.216M381.826 571.82C381.912 572.174 381.987 572.525 382.052 572.872C382.157 573.441 382.178 573.98 382.127 574.491M381.826 571.82C383.33 573.174 384.612 574.726 385.698 576.32M382.127 574.491C382.03 575.449 381.676 576.306 381.131 577.064M382.127 574.491C379.851 573.42 377.716 572.658 379.05 574.327C379.553 574.956 380.415 575.962 381.131 577.064M382.127 574.491C383.519 575.147 384.964 575.918 385.698 576.32M381.131 577.064C379.571 579.234 376.45 580.584 373.343 581.136M381.131 577.064C382.22 578.739 382.97 580.635 381.601 581.757C381.296 582.008 380.986 582.246 380.672 582.473M373.343 581.136C373.245 581.153 373.146 581.17 373.048 581.185C370.666 581.57 368.308 581.426 366.141 580.814M373.343 581.136C375.783 581.769 378.274 582.307 380.672 582.473M373.343 581.136C371.231 580.587 369.156 579.966 367.211 579.45M366.141 580.814C364.499 580.35 362.967 579.618 361.616 578.643M366.141 580.814C366.254 580.693 366.366 580.565 366.476 580.432C366.743 580.11 366.988 579.782 367.211 579.45M366.141 580.814C364.099 583.019 361.673 583.354 359.201 582.748M361.616 578.643C361.339 578.443 361.07 578.233 360.809 578.013M361.616 578.643C361.032 580.09 360.185 581.487 359.201 582.748M361.616 578.643C361.672 578.506 361.725 578.369 361.775 578.231M360.809 578.013C361.13 578.087 361.452 578.16 361.775 578.231M360.809 578.013C359.496 577.711 358.203 577.387 356.928 577.041M359.908 569.086C361.316 568.463 362.9 567.999 364.543 567.691M359.908 569.086C358.258 567.824 356.01 567.376 353.743 567.254M364.543 567.691C360.982 564.715 355.142 561.361 349.907 560.216M385.698 576.32C385.846 576.538 385.992 576.757 386.133 576.977C386.851 578.091 386.581 579.213 387.094 580.354C387.302 580.817 387.435 581.216 387.495 581.562M385.698 576.32C385.906 576.434 386.057 576.518 386.133 576.561C388.461 577.881 390.939 580.088 387.495 581.562M387.495 581.562C387.762 583.109 386.566 583.631 383.972 584.277C381.06 585.002 377.942 585.325 374.743 585.393M387.495 581.562C387.424 581.593 387.35 581.623 387.274 581.653C385.247 582.445 383.003 582.635 380.672 582.473M374.743 585.393C369.174 585.512 363.356 584.858 357.945 584.21M374.743 585.393C376.836 584.74 378.826 583.806 380.672 582.473M357.945 584.21C358.381 583.749 358.802 583.26 359.201 582.748M343.358 582.882C342.774 582.846 342.191 582.81 341.607 582.772M343.358 582.882C343.207 582.764 343.06 582.649 342.917 582.536C342.818 582.458 342.719 582.379 342.621 582.3M343.358 582.882C345.14 584.273 347.489 585.99 349.918 586.78M341.607 582.772C337.935 582.536 334.272 582.252 330.672 581.679C324.498 580.696 318.518 579.249 318.518 572.691C318.518 566.544 325.068 560.957 328.362 555.883C330.153 553.122 332.843 549.629 336.149 548.143M341.607 582.772C341.961 582.655 342.3 582.502 342.617 582.303L342.621 582.3M341.607 582.772C339.89 583.34 337.809 583.064 336.044 583.186C334.653 583.282 338.17 584.859 339.496 585.238C342.884 586.207 346.387 586.611 349.918 586.78M336.149 548.143C336.375 548.042 336.603 547.95 336.834 547.868M336.149 548.143C336.074 548.746 336.116 549.416 336.223 550.08M336.149 548.143C336.23 547.5 336.444 546.934 336.855 546.53C337.335 546.059 337.126 546.897 336.834 547.868M336.834 547.868C336.637 548.52 336.403 549.232 336.315 549.648C336.284 549.792 336.253 549.936 336.223 550.08M349.907 560.216C349.875 560.832 349.694 561.329 349.326 561.648M349.326 561.648C351.017 563.201 352.525 565.158 353.743 567.254M343.302 560.306C342.641 559.912 342.026 559.48 341.454 559.013M343.302 560.306C344.391 559.913 345.621 559.767 346.934 559.817M341.454 559.013C339.319 559.542 337.411 560.907 336.735 562.689C336.641 562.935 336.576 563.183 336.537 563.433M341.454 559.013C343.134 558.597 344.955 558.698 346.428 559.52C346.598 559.614 346.767 559.713 346.934 559.817M335.263 562.421C335.349 564.716 335.525 567.494 336.816 569.116M335.263 562.421C335.37 562.487 335.481 562.559 335.594 562.637C335.935 562.87 336.249 563.138 336.537 563.433M335.263 562.421C331.619 560.161 331.426 564.116 332.113 566.586C332.142 566.688 332.171 566.791 332.201 566.894M336.816 569.116C336.848 569.156 336.881 569.196 336.915 569.235C337.38 569.776 338.141 570.167 338.632 570.046M336.816 569.116C337.421 569.433 338.026 569.743 338.632 570.046M336.816 569.116C336.629 569.018 336.442 568.919 336.255 568.82C335.188 568.253 334.156 566.664 332.773 566.793C332.573 566.812 332.382 566.846 332.201 566.894M338.632 570.046C338.936 569.97 339.137 569.698 339.1 569.142M338.632 570.046C339.597 570.528 340.564 570.993 341.533 571.441M339.1 569.142C339.096 569.073 339.088 569.001 339.076 568.924C338.793 567.107 337.993 564.925 336.537 563.433M339.1 569.142C339.83 569.934 340.662 570.706 341.533 571.441M339.1 569.142C337.384 567.277 336.242 565.299 336.537 563.433M349.918 586.78C351.413 587.266 352.938 587.401 354.381 586.892M349.918 586.78C351.403 586.851 352.893 586.88 354.381 586.892M359.201 582.748C357.731 582.388 356.244 581.695 354.812 580.864M361.775 578.231C362.584 578.41 363.4 578.58 364.225 578.743C365.174 578.931 366.174 579.176 367.211 579.45M354.812 580.864C352.482 579.513 350.295 577.798 348.559 576.561C347.749 575.984 346.53 575.181 345.173 574.222M354.812 580.864C356.106 580.049 356.961 578.713 356.932 577.211C356.931 577.154 356.93 577.098 356.928 577.041M354.812 580.864C353.759 581.527 352.416 581.845 351.02 581.627C348.591 581.247 346.662 579.862 345.324 578.122M345.173 574.222C344.634 573.841 344.073 573.435 343.507 573.009M345.173 574.222C345.126 574.063 345.074 573.907 345.018 573.756C344.86 573.334 344.71 573.015 344.57 572.783M345.173 574.222C345.522 575.412 345.59 576.799 345.324 578.122M343.507 573.009C342.847 572.512 342.179 571.987 341.533 571.441M343.507 573.009C343.4 573.559 343.428 574.321 343.637 574.951C344 576.043 344.568 577.139 345.324 578.122M343.507 573.009C343.556 572.761 343.632 572.555 343.732 572.425M341.533 571.441C342.264 571.779 342.997 572.107 343.732 572.425M356.928 577.041C352.656 575.882 348.575 574.474 344.57 572.783M343.732 572.425C343.93 572.168 344.22 572.205 344.57 572.783M343.732 572.425C344.011 572.546 344.29 572.665 344.57 572.783M389.494 586.433C389.249 590.254 380.193 591.481 377.01 592.2C368.309 594.167 358.598 594.33 349.67 593.603C341.852 592.967 334.19 590.361 326.651 588.511C320.704 587.052 316.355 584.699 312.636 580.406C307.023 573.928 308.46 564.405 313.206 557.649C318.644 549.908 324.368 544.903 334.394 542.01M398.678 571.937C396.702 562.438 385.857 554.36 377.43 548.998C370.965 544.884 363.984 542.088 356.542 539.672M339.335 535.871C339.212 536.156 338.574 536.121 338.313 536.166C336.871 536.413 335.488 536.827 334.146 537.346C332.018 538.169 329.955 539.185 327.883 540.113C324.874 541.462 322.947 543.947 321.423 546.454C319.711 549.27 317.289 551.529 316.169 554.654C315.514 556.481 314.66 558.14 315.566 560.076C317.054 563.256 320.625 565.332 323.795 567.131C331.068 571.26 339.044 575.118 347.722 576.375C351.407 576.909 355.196 577.021 358.925 577.09C360.985 577.128 363.076 577.213 365.071 576.693C366.295 576.374 367.137 575.734 367.979 574.935C368.298 574.633 368.975 573.76 369.578 574.164C370.727 574.932 371.121 576.724 371.727 577.793C372.993 580.025 374.482 577.356 375.789 576.375C377.045 575.433 378.062 574.738 379.891 575.196C381.916 575.703 383.697 576.835 385.63 577.544C387.315 578.162 389.249 578.184 390.884 578.837C393.881 580.034 391.367 581.301 391.048 582.992M391.048 582.992C391.027 583.102 391.015 583.214 391.015 583.328C391.015 583.548 391.549 583.358 392.222 583.005M391.048 582.992C391.439 583.004 391.831 583.012 392.222 583.005M391.048 582.992C389.693 582.947 388.338 582.838 386.979 583.034M392.222 583.005C393.27 582.455 394.654 581.509 394.881 581.094C395.597 579.786 396.211 578.448 396.178 576.977C396.15 575.743 395.864 574.589 395.47 573.415C394.738 571.231 395.842 573.34 396.27 574.254C396.916 575.637 396.965 576.958 396.65 578.406C396.507 579.06 396.386 579.73 396.165 580.368C396.065 580.656 395.487 581.479 395.575 581.786C395.671 582.118 396.166 581.327 396.414 581.06C397.083 580.339 397.579 579.445 397.96 578.587C398.888 576.503 398.88 574.355 398.209 572.224C397.866 571.135 398.598 573.168 398.642 573.347C399.093 575.194 399.254 577.135 398.301 578.86C397.428 580.439 396.774 582.151 394.579 582.716C393.793 582.918 393.007 582.991 392.222 583.005ZM338.266 535.439C335.2 535.439 332.552 536.758 329.959 538.301C328.598 539.111 327.319 539.907 326.371 541.199C325.467 542.429 324.796 543.804 324.056 545.128" stroke="#544B4B" stroke-width="10" stroke-linecap="round"/>
</svg>
