<svg width="1017" height="1057" viewBox="0 0 1017 1057" fill="none" xmlns="http://www.w3.org/2000/svg">
<path d="M414.5 736H598.5L645.464 998.184C650.955 1028.84 627.39 1057 596.248 1057H419.205C388.246 1057 364.728 1029.15 369.91 998.631L414.5 736Z" fill="url(#paint0_linear_45_121)"/>
<path d="M997.532 963.75C1082.76 917.229 883 675.5 488.835 480.5V928.671C483.997 962.946 519.478 980.107 551.027 928.671C563.725 907.968 590.703 894.557 613.218 928.671C635.733 962.785 675.41 928.671 675.41 928.671C675.41 928.671 709.524 882.736 737.601 928.671C765.678 974.607 779.182 973.286 799.792 928.671C822.082 886.901 835.927 893.01 861.984 928.671C883.461 968.762 901.737 971.243 921.5 929.77C941.263 888.296 973 963.75 997.532 963.75Z" fill="url(#paint1_linear_45_121)"/>
<path d="M19.4293 963.25C-65.7955 916.729 133.961 675 528.126 480V928.171C532.964 962.446 497.483 979.607 465.934 928.171C453.236 907.468 426.258 894.057 403.743 928.171C381.228 962.285 341.551 928.171 341.551 928.171C341.551 928.171 307.437 882.236 279.36 928.171C251.283 974.107 237.779 972.786 217.168 928.171C194.879 886.401 181.034 892.51 154.977 928.171C133.5 968.262 115.224 970.743 95.4609 929.27C75.6975 887.796 43.9609 963.25 19.4293 963.25Z" fill="url(#paint2_linear_45_121)"/>
<path d="M846.797 682C905.816 647.861 767.483 470.468 494.522 327.367V656.257C491.171 681.41 515.742 694.003 537.59 656.257C546.383 641.064 565.066 631.223 580.658 656.257C596.249 681.292 623.725 656.257 623.725 656.257C623.725 656.257 647.35 622.548 666.793 656.257C686.237 689.967 695.588 688.998 709.861 656.257C725.297 625.605 734.885 630.088 752.929 656.257C767.802 685.678 780.458 687.499 794.145 657.063C807.831 626.628 829.809 682 846.797 682Z" fill="url(#paint3_linear_45_121)"/>
<path d="M169.455 681.633C110.436 647.494 248.769 470.101 521.731 327V655.89C525.081 681.043 500.51 693.636 478.663 655.89C469.869 640.697 451.186 630.856 435.595 655.89C420.003 680.925 392.527 655.89 392.527 655.89C392.527 655.89 368.902 622.181 349.459 655.89C330.015 689.6 320.664 688.631 306.391 655.89C290.955 625.238 281.367 629.721 263.323 655.89C248.45 685.311 235.794 687.132 222.107 656.697C208.421 626.261 186.443 681.633 169.455 681.633Z" fill="url(#paint4_linear_45_121)"/>
<path d="M640.5 413.5C723.81 492.408 594.554 587.349 173 617" stroke="#FFB800" stroke-width="14" stroke-miterlimit="2" stroke-linecap="round" stroke-linejoin="round"/>
<path d="M746.524 460.938C788.09 428.344 690.664 258.977 498.418 122.35V436.36C496.059 460.375 513.364 472.398 528.751 436.36C534.944 421.855 548.102 412.458 559.083 436.36C570.065 460.262 589.416 436.36 589.416 436.36C589.416 436.36 606.054 404.176 619.748 436.36C633.442 468.545 640.029 467.619 650.081 436.36C660.952 407.094 667.705 411.375 680.413 436.36C690.888 464.45 699.802 466.188 709.441 437.13C719.08 408.071 734.559 460.938 746.524 460.938Z" fill="url(#paint5_linear_45_121)"/>
<path d="M269.476 460.588C227.91 427.993 325.336 258.626 517.582 122V436.01C519.941 460.025 502.636 472.048 487.249 436.01C481.056 421.504 467.898 412.108 456.917 436.01C445.935 459.912 426.584 436.01 426.584 436.01C426.584 436.01 409.946 403.825 396.252 436.01C382.558 468.195 375.971 467.269 365.919 436.01C355.048 406.744 348.295 411.024 335.587 436.01C325.112 464.099 316.198 465.838 306.559 436.78C296.92 407.721 281.441 460.588 269.476 460.588Z" fill="url(#paint6_linear_45_121)"/>
<path d="M377.5 245C495.812 340.735 629.252 296.242 737.5 371M217 676C299.781 873.471 551.5 902.5 943 796" stroke="#FFB800" stroke-width="14" stroke-miterlimit="2" stroke-linecap="round" stroke-linejoin="round"/>
<path d="M504.196 11.7082C505.393 8.02297 510.607 8.02296 511.804 11.7082L534.493 81.536C535.028 83.1841 536.564 84.2999 538.297 84.2999H611.718C615.593 84.2999 617.204 89.2584 614.069 91.536L554.67 134.692C553.268 135.711 552.682 137.516 553.217 139.164L575.906 208.992C577.103 212.677 572.885 215.742 569.75 213.464L510.351 170.308C508.949 169.289 507.051 169.289 505.649 170.308L446.25 213.464C443.115 215.742 438.897 212.677 440.094 208.992L462.783 139.164C463.318 137.516 462.732 135.711 461.33 134.692L401.931 91.536C398.796 89.2584 400.407 84.2999 404.282 84.2999H477.703C479.436 84.2999 480.972 83.1841 481.507 81.536L504.196 11.7082Z" fill="#FFB800"/>
<circle cx="364" cy="327" r="25" fill="#E34E4E"/>
<circle cx="513" cy="269" r="25" fill="#E34E4E"/>
<circle cx="714" cy="574" r="25" fill="#E34E4E"/>
<circle cx="656" cy="377" r="25" fill="#E34E4E"/>
<circle cx="264" cy="549" r="25" fill="#E34E4E"/>
<circle cx="315" cy="722" r="25" fill="#E34E4E"/>
<circle cx="897" cy="850" r="25" fill="#E34E4E"/>
<circle cx="580" cy="775" r="25" fill="#E34E4E"/>
<circle cx="145" cy="825" r="25" fill="#E34E4E"/>
<circle cx="447" cy="524" r="25" fill="#E34E4E"/>
<defs>
<linearGradient id="paint0_linear_45_121" x1="598.5" y1="1057" x2="414.5" y2="1057" gradientUnits="userSpaceOnUse">
<stop stop-color="#764700"/>
<stop offset="1" stop-color="#613A00"/>
</linearGradient>
<linearGradient id="paint1_linear_45_121" x1="752.675" y1="480.5" x2="752.675" y2="963.75" gradientUnits="userSpaceOnUse">
<stop stop-color="#095228"/>
<stop offset="1" stop-color="#36714F"/>
</linearGradient>
<linearGradient id="paint2_linear_45_121" x1="264.286" y1="480" x2="264.286" y2="963.25" gradientUnits="userSpaceOnUse">
<stop stop-color="#095228"/>
<stop offset="1" stop-color="#36714F"/>
</linearGradient>
<linearGradient id="paint3_linear_45_121" x1="677.233" y1="327.367" x2="677.233" y2="682" gradientUnits="userSpaceOnUse">
<stop stop-color="#095228"/>
<stop offset="1" stop-color="#36714F"/>
</linearGradient>
<linearGradient id="paint4_linear_45_121" x1="339.02" y1="327" x2="339.02" y2="681.633" gradientUnits="userSpaceOnUse">
<stop stop-color="#095228"/>
<stop offset="1" stop-color="#36714F"/>
</linearGradient>
<linearGradient id="paint5_linear_45_121" x1="627.101" y1="122.35" x2="627.101" y2="460.938" gradientUnits="userSpaceOnUse">
<stop stop-color="#095228"/>
<stop offset="1" stop-color="#36714F"/>
</linearGradient>
<linearGradient id="paint6_linear_45_121" x1="388.899" y1="122" x2="388.899" y2="460.588" gradientUnits="userSpaceOnUse">
<stop stop-color="#095228"/>
<stop offset="1" stop-color="#36714F"/>
</linearGradient>
</defs>
</svg>
