<svg width="450" height="715" viewBox="0 0 450 715" fill="none" xmlns="http://www.w3.org/2000/svg">
<path d="M225 90L333.253 277.5H116.747L225 90Z" fill="#095228"/>
<path d="M225 265L419.856 602.5H30.1443L225 265Z" fill="#095228"/>
<path d="M225 165L376.554 427.5H73.4456L225 165Z" fill="#095228"/>
<rect x="185" y="602" width="80" height="100" fill="#764700"/>
<path d="M151 216C137.489 251.313 216.53 312.505 325 337.5C325.319 372.338 158.5 429.5 134 428C109.5 426.5 236.135 563.34 386.5 545" stroke="#FFB800" stroke-width="4"/>
<path d="M221.196 11.7082C222.393 8.02295 227.607 8.02296 228.804 11.7082L240.94 49.0598C241.476 50.7079 243.012 51.8237 244.745 51.8237H284.019C287.893 51.8237 289.505 56.7822 286.37 59.0598L254.596 82.1443C253.195 83.1629 252.608 84.9684 253.143 86.6165L265.28 123.968C266.477 127.653 262.259 130.718 259.124 128.44L227.351 105.356C225.949 104.337 224.051 104.337 222.649 105.356L190.876 128.44C187.741 130.718 183.523 127.653 184.72 123.968L196.857 86.6165C197.392 84.9684 196.805 83.1629 195.404 82.1443L163.63 59.0598C160.495 56.7822 162.107 51.8237 165.981 51.8237H205.255C206.988 51.8237 208.524 50.7079 209.06 49.0598L221.196 11.7082Z" fill="#FFB800"/>
<circle cx="279" cy="251" r="14" fill="#FF0000"/>
<circle cx="183" cy="215" r="14" fill="#FF0000"/>
<circle cx="225" cy="340" r="14" fill="#FF0000"/>
<circle cx="300" cy="453" r="14" fill="#FF0000"/>
<circle cx="124" cy="559" r="14" fill="#FF0000"/>
<circle cx="211" cy="501" r="14" fill="#FF0000"/>
<circle cx="124" cy="403" r="14" fill="#FF0000"/>
<circle cx="183" cy="431" r="14" fill="#FF0000"/>
<circle cx="328" cy="573" r="14" fill="#FF0000"/>
</svg>
